<?xml version="1.0" encoding="utf-8"?>
<!-- Generator: Adobe Illustrator 16.0.0, SVG Export Plug-In . SVG Version: 6.00 Build 0)  -->
<!DOCTYPE svg PUBLIC "-//W3C//DTD SVG 1.1//EN" "http://www.w3.org/Graphics/SVG/1.1/DTD/svg11.dtd">
<svg version="1.1" id="Layer_1" xmlns="http://www.w3.org/2000/svg" xmlns:xlink="http://www.w3.org/1999/xlink" x="0px" y="0px"
	 width="480px" height="480px" viewBox="0 0 480 480" enable-background="new 0 0 480 480" xml:space="preserve">
<g>
	<path fill="#FFDF00" d="M479.191,111.9c0,61.8-50.096,111.896-111.902,111.896c-61.794,0-111.894-50.096-111.894-111.896
		c0-61.801,50.1-111.9,111.894-111.9C429.096,0,479.191,50.099,479.191,111.9z"/>
	<path fill="#D6DE23" d="M479.191,464.607c-24.161-31.088-172.371-81.272-265.329-81.272c-92.955,0-111.972,50.185-136.14,81.272
		H479.191z"/>
	<g>
		<path fill="#D1D3D4" d="M397.169,142.085c-4.965-0.928-15.815-1.701-15.815-1.701s4.964-0.466,3.415-3.57
			c0,0,0-1.547-11.787-0.464c-8.71,0.802-13.518,4.398-15.436,6.222c-6.124,0.765-41.22,4.587-69.136-4.148
			c-18.885-5.916-35.967-7.757-35.967-7.757l-1.243-29.144c-4.343-22.945-14.879-20.463-25.424-14.264
			c-10.54,6.202-9.3,44.029-9.3,44.029c-16.434-3.876-41.083,3.72-50.383,6.356c-9.302,2.634-66.504,0.309-66.504,0.309
			s-4.653-6.201-16.437-7.287c-11.785-1.085-11.785,0.464-11.785,0.464c-1.543,3.098,3.413,3.564,3.413,3.564
			s-10.849,0.779-15.816,1.704c-4.957,0.931-0.155,4.189-0.155,4.189c0,2.019,3.879,2.324,3.879,2.324
			c0.309,3.104,5.583,2.64,5.583,2.64c0,5.578,34.417,4.65,34.417,4.65c8.675,24.801,10.932,35.182,18.908,35.563
			c16.417,0.782,65.734,1.074,65.734,1.074s-0.624,9.251-2.485,37.155c-1.861,27.905,7.132,26.354,7.132,26.354
			c0.621,44.029-4.341,181.386-4.341,181.386l99.22-0.619l-8.685-85.889c9.926-1.86,2.485-41.858,2.485-41.858
			s3.82,0.104,4.032-9.608c0.154-7.238-4.965-103.558-4.965-103.558s52.71-1.246,65.73-4.962
			c13.024-3.722,14.629-20.294,14.471-28.216c-0.003-0.309-0.022-0.682-0.046-1.082c9.965-0.04,27.985-0.67,27.985-4.707
			c0,0,5.271,0.466,5.577-2.637c0,0,3.876-0.309,3.876-2.325C397.32,146.271,402.128,143.014,397.169,142.085z"/>
		<g>
			<polygon fill="#C1C4C6" points="199.673,312.403 199.673,425.572 207.217,425.572 205.6,314.024 			"/>
			<polygon fill="#C1C4C6" points="212.067,317.797 214.762,425.033 221.768,425.572 217.456,317.254 			"/>
			<polygon fill="#C1C4C6" points="225,320.488 229.312,426.104 234.698,423.957 230.927,322.643 			"/>
			<polygon fill="#C1C4C6" points="238.471,326.953 241.704,426.104 248.172,426.104 244.4,328.568 			"/>
			<polygon fill="#C1C4C6" points="250.327,330.728 254.64,425.572 260.024,426.104 257.336,334.501 			"/>
			<polygon fill="#C1C4C6" points="266.492,336.654 267.033,425.033 274.581,425.033 270.805,336.116 			"/>
		</g>
		<polygon fill="#F1F2F2" points="154.825,480 157.926,439.028 172.189,439.028 172.189,422.908 296.134,421.26 297.215,436.349 
			312.303,435.931 317.686,480 		"/>
		<path fill="#C7C8C9" d="M225,119.664c0,0,0.022,0.979,0.049,2.511c0.08,4.919,0.223,15.544-0.049,18.144
			c-0.355,3.413,20.657,5.392,21.736,1.077c0,0-1.079-16.52-1.617-21.915L225,119.664z"/>
		<path fill="#C7C8C9" d="M215.572,131.878c0,0,20.746-2.425,38.53,0.805l-6.735,23.982l-21.015-0.539L215.572,131.878z"/>
		<path fill="#E6E7E8" d="M357.546,142.572c-6.124,0.765-41.22,4.587-69.136-4.148c-18.885-5.916-35.967-7.757-35.967-7.757
			l-7.508,21.686l-16.162,1.083l-12.297-22.146c-16.434-3.876-41.083,3.72-50.383,6.356c-9.302,2.634-66.504,0.309-66.504,0.309
			l3.101,12.249c8.675,24.801,10.932,35.182,18.908,35.563c16.417,0.782,65.734,1.074,65.734,1.074s-0.624,9.251-2.485,37.155
			c-1.861,27.905,7.132,26.354,7.132,26.354c0.183,13.063-0.123,34.335-0.647,57.801c44.985,31.202,86.841,37.077,86.841,37.077
			c9.926-1.86,2.485-41.858,2.485-41.858s3.82,0.104,4.032-9.608c0.154-7.238-4.965-103.558-4.965-103.558s52.71-1.246,65.73-4.962
			c13.024-3.722,14.629-20.294,14.471-28.216c-0.003-0.309-0.022-0.682-0.046-1.082L357.546,142.572z"/>
		<path fill="#D1D3D4" d="M209.548,239.029c0-1.128-8.057,8.639-15.917,7.449c-8.071-1.226-5.912,1.482-5.557,2.284
			c0.544,1.208,2.405,2.565,5.14,2.09C202.754,249.174,209.548,240.162,209.548,239.029z"/>
		<path fill="#D1D3D4" d="M209.64,238.579c0-0.601-1.761-74.421-3.384-74.421c-1.629,0-0.167,74.802-0.167,75.4
			c0,0.599-0.306,2.884,1.443,1.808C208.924,240.517,209.64,239.171,209.64,238.579z"/>
		<path fill="#BBBBBC" d="M225,119.664c0,0-0.263,0.109,0.101,1.606c1.821,7.441,14.719,16.667,20.689,6.428
			c-0.247-3.298-0.487-6.393-0.671-8.217L225,119.664z"/>
		<path fill="#E6E7E8" d="M235.416,87.328c0,0-2.422,2.425-5.388,3.771c-2.963,1.354-8.083,5.122-7.813,12.125
			c0.223,5.667,0.257,13.268,2.975,18.252c0.644,1.177,1.435,2.213,2.419,3.032c5.119,4.314,4.33,3.596,5.944,3.868
			c1.618,0.266,5.995,0.369,7.481-1.515c1.481-1.89,4.762-4.1,5.432-7.874c0.676-3.768,2.021-10.776,1.888-13.608
			c-0.138-2.826-0.536-12.26-7.68-15.224C240.673,90.157,236.089,88.542,235.416,87.328z"/>
		<path fill="#D1D3D4" d="M252.443,130.667l-7.508,21.686l-16.162,1.083l-12.297-22.146c-16.434-3.876-41.083,3.72-50.383,6.356
			c9.328,20.637,30.971,33.333,40.582,37.882c19.69,9.311,57.123,11.312,57.123,11.312L252.443,130.667z"/>
		<path fill="#DCDCDD" d="M252.443,130.667l-7.508,21.686l-16.162,1.083l-12.297-22.146c-16.434-3.876-41.083,3.72-50.383,6.356
			c3.94,7.163,35.282,27.406,44.891,31.95c19.69,9.319,52.814,17.244,52.814,17.244L252.443,130.667z"/>
		<g>
			<path fill="#F1F2F2" d="M276.843,135.197c-13.766-3.387-24.399-4.53-24.399-4.53l-0.501,26.539c0,0,0.166,157.688-0.353,181.156
				c17.241,5.657,26.584,6.864,26.584,6.864c9.926-1.86,2.485-41.858,2.485-41.858s3.82,0.104,4.032-9.608
				c0.154-7.238-4.965-103.558-4.965-103.558S280.524,136.104,276.843,135.197z"/>
			<path fill="#D1D3D4" d="M252.079,287.345c0-1.637,11.662,12.513,23.04,10.783c11.67-1.775,8.555,2.142,8.037,3.298
				c-0.788,1.753-3.473,3.728-7.433,3.029C261.911,302.027,252.079,288.982,252.079,287.345z"/>
			<path fill="#D1D3D4" d="M266.312,296.868c0-1.043-3.438-134.222-6.267-134.222s-0.286,130.122-0.286,131.17
				c0,1.036-0.27,2.336,2.517,3.138C264.989,297.744,266.312,297.91,266.312,296.868z"/>
			<path fill="#D1D3D4" d="M198.528,247.938c0-0.504,1.168-67.558-0.198-67.558c-1.375,0-2.969,65.576-2.969,66.079
				c0,0.505-0.135,1.129,1.21,1.524C197.889,248.36,198.528,248.44,198.528,247.938z"/>
			<path fill="#D1D3D4" d="M278.706,301.718c0-1.047-6.284-161.219-11.135-161.219c-5.952,0,7.972,157.119,7.972,158.161
				c0,1.048-0.132,2.337,1.214,3.144C278.074,302.6,278.706,302.754,278.706,301.718z"/>
		</g>
		<path fill="#D1D3D4" d="M187.333,186.839c0,0-30.753-28.233-32.365-33.894c-1.618-5.657-7.275-0.807,5.66,18.596
			c12.933,19.395-10.51-1.618-10.51-1.618s-34.761-26.673-10.505,1.618c24.248,28.288-10.514,1.612-14.553,0
			c-4.04-1.618-8.083,1.612,3.232,14.544L187.333,186.839z"/>
		<path fill="#D1D3D4" d="M279.966,183.071l-0.239,7.129c0,0,37.423,0.143,51.971-2.815c0,0,16.443-18.055,8.896-15.904
			c-7.547,2.159-25.603,18.33-17.517-0.267c8.085-18.593-6.466-14.281-19.132,0.536c-12.66,14.819-11.584,10.245-8.082-1.34
			C299.367,158.821,288.046,168.523,279.966,183.071z"/>
		<polygon fill="#BBBBBC" points="216.917,131.878 229.312,151.276 243.594,151.142 251.674,132.414 244.936,152.353 
			228.774,153.435 		"/>
	</g>
	<path fill="#FFDF00" d="M216.319,62.282c0,7.455,6.041,13.497,13.491,13.497h102.365c7.45,0,13.491-6.042,13.491-13.497l0,0
		c0-7.45-6.041-13.491-13.491-13.491H229.811C222.36,48.791,216.319,54.832,216.319,62.282L216.319,62.282z"/>
	<path fill="#FFDF00" d="M241.632,210.302c0,7.453,6.917,13.494,15.452,13.494h117.251c8.535,0,15.453-6.042,15.453-13.494l0,0
		c0-7.449-6.918-13.494-15.453-13.494H257.084C248.549,196.809,241.632,202.853,241.632,210.302L241.632,210.302z"/>
	<path fill="#FFDF00" d="M254.865,187.146c0,2.067,1.676,3.742,3.745,3.742h80.641c2.063,0,3.744-1.675,3.744-3.742l0,0
		c0-2.07-1.681-3.745-3.744-3.745H258.61C256.541,183.401,254.865,185.076,254.865,187.146L254.865,187.146z"/>
	<path fill="#FFDF00" d="M234.297,140.499c0,2.07,1.675,3.746,3.745,3.746h80.64c2.064,0,3.745-1.675,3.745-3.746l0,0
		c0-2.07-1.681-3.745-3.745-3.745h-80.64C235.972,136.754,234.297,138.429,234.297,140.499L234.297,140.499z"/>
	<path fill="#FFDF00" d="M244.707,33.384c0,2.07,1.675,3.745,3.745,3.745h80.637c2.07,0,3.745-1.675,3.745-3.745l0,0
		c0-2.07-1.675-3.745-3.745-3.745h-80.637C246.382,29.639,244.707,31.314,244.707,33.384L244.707,33.384z"/>
	<path fill="#FFDF00" d="M207.956,15.735c0,4.106,3.327,7.43,7.432,7.43h129.12c4.103,0,7.427-3.324,7.427-7.43l0,0
		c0-4.103-3.324-7.432-7.427-7.432h-129.12C211.283,8.303,207.956,11.633,207.956,15.735L207.956,15.735z"/>
	<path fill="#FFDF00" d="M147.229,18.063c0,1.283,1.042,2.325,2.325,2.325h40.402c1.285,0,2.325-1.042,2.325-2.325l0,0
		c0-1.285-1.04-2.328-2.325-2.328h-40.402C148.271,15.735,147.229,16.778,147.229,18.063L147.229,18.063z"/>
	<path fill="#FFFFFF" d="M163.236,48.791c0,9.488-7.693,17.182-17.182,17.182H64.267c-9.488,0-17.179-7.693-17.179-17.182l0,0
		c0-9.492,7.69-17.182,17.179-17.182h81.788C155.543,31.608,163.236,39.299,163.236,48.791L163.236,48.791z"/>
	<path fill="#FFFFFF" d="M463.511,100.212c0,6.889-5.587,12.469-12.473,12.469h-59.357c-6.89,0-12.47-5.58-12.47-12.469l0,0
		c0-6.888,5.58-12.469,12.47-12.469h59.357C457.924,87.743,463.511,93.324,463.511,100.212L463.511,100.212z"/>
	<path fill="#FFFFFF" d="M198.762,88.677c0,6.371-5.162,11.535-11.535,11.535h-54.915c-6.376,0-11.536-5.165-11.536-11.535l0,0
		c0-6.37,5.16-11.536,11.536-11.536h54.915C193.6,77.141,198.762,82.307,198.762,88.677L198.762,88.677z"/>
	<path fill="#FFFFFF" d="M276.228,70.101c0,4.32,3.502,7.819,7.819,7.819h64.359c4.315,0,7.816-3.499,7.816-7.819l0,0
		c0-4.315-3.501-7.817-7.816-7.817h-64.359C279.729,62.284,276.228,65.786,276.228,70.101L276.228,70.101z"/>
	<path fill="#FFFFFF" d="M262.295,24.205c0,5.07,4.108,9.179,9.183,9.179h75.569c5.065,0,9.176-4.108,9.176-9.179l0,0
		c0-5.065-4.11-9.177-9.176-9.177h-75.569C266.403,15.028,262.295,19.14,262.295,24.205L262.295,24.205z"/>
	<path fill="#E6E7E8" d="M148.273,285.633c0,4.14,3.353,7.489,7.49,7.489h48.813c4.138,0,7.49-3.35,7.49-7.489l0,0
		c0-4.134-3.353-7.49-7.49-7.49h-48.813C151.626,278.143,148.273,281.499,148.273,285.633L148.273,285.633z"/>
	<path fill="#E6E7E8" d="M172.971,263.69c0,3.366,2.731,6.099,6.099,6.099h39.754c3.37,0,6.102-2.732,6.102-6.099l0,0
		c0-3.367-2.731-6.099-6.102-6.099H179.07C175.703,257.592,172.971,260.323,172.971,263.69L172.971,263.69z"/>
	<path fill="#E6E7E8" d="M122.812,244.53c0,3.366,2.729,6.099,6.099,6.099h39.755c3.367,0,6.098-2.732,6.098-6.099l0,0
		c0-3.366-2.731-6.098-6.098-6.098h-39.755C125.541,238.433,122.812,241.164,122.812,244.53L122.812,244.53z"/>
	<path fill="#E6E7E8" d="M72.773,163.488c0,3.373,2.729,6.101,6.098,6.101h39.752c3.369,0,6.099-2.729,6.099-6.101l0,0
		c0-3.368-2.729-6.096-6.099-6.096H78.871C75.502,157.392,72.773,160.12,72.773,163.488L72.773,163.488z"/>
	<path fill="#D1D3D4" d="M200.182,125.863c0,1.32,1.065,2.385,2.382,2.385h15.541c1.314,0,2.382-1.065,2.382-2.385l0,0
		c0-1.314-1.068-2.385-2.382-2.385h-15.541C201.248,123.478,200.182,124.549,200.182,125.863L200.182,125.863z"/>
	<path fill="#D1D3D4" d="M38.796,148.779c0,0.793,0.641,1.435,1.431,1.435h48.69c0.788,0,1.432-0.642,1.432-1.435l0,0
		c0-0.79-0.645-1.431-1.432-1.431h-48.69C39.438,147.348,38.796,147.989,38.796,148.779L38.796,148.779z"/>
	<path fill="#D1D3D4" d="M47.884,136.153c0,0.564,0.455,1.016,1.014,1.016h34.543c0.561,0,1.017-0.452,1.017-1.016l0,0
		c0-0.561-0.456-1.017-1.017-1.017H48.897C48.339,135.137,47.884,135.592,47.884,136.153L47.884,136.153z"/>
	<path fill="#FFFFFF" d="M270.438,138.922c0,3.293,2.671,5.961,5.963,5.961h92.906c3.295,0,5.967-2.668,5.967-5.961l0,0
		c0-3.298-2.672-5.967-5.967-5.967h-92.906C273.109,132.955,270.438,135.624,270.438,138.922L270.438,138.922z"/>
	<path fill="#D1D3D4" d="M171.262,120.263c0,0.819,0.664,1.48,1.483,1.48h46.262c0.819,0,1.48-0.662,1.48-1.48l0,0
		c0-0.816-0.662-1.48-1.48-1.48h-46.262C171.926,118.782,171.262,119.447,171.262,120.263L171.262,120.263z"/>
	<path fill="#E6E7E8" d="M150.364,218.809c0,1.472,1.191,2.666,2.666,2.666h35.308c1.469,0,2.666-1.194,2.666-2.666l0,0
		c0-1.475-1.197-2.668-2.666-2.668h-35.308C151.555,216.141,150.364,217.334,150.364,218.809L150.364,218.809z"/>
	<path fill="#D1D3D4" d="M173.816,321.33c0,1.34,1.085,2.428,2.428,2.428h14.651c1.343,0,2.431-1.088,2.431-2.428l0,0
		c0-1.34-1.088-2.428-2.431-2.428h-14.651C174.901,318.902,173.816,319.99,173.816,321.33L173.816,321.33z"/>
	<path fill="#D1D3D4" d="M158.925,312.065c0,1.804,1.46,3.265,3.267,3.265h19.709c1.804,0,3.264-1.461,3.264-3.265l0,0
		c0-1.804-1.46-3.264-3.264-3.264h-19.709C160.385,308.802,158.925,310.262,158.925,312.065L158.925,312.065z"/>
	<path fill="#D1D3D4" d="M102.424,349.562c0,2.175,1.395,3.939,3.115,3.939h51.501c1.721,0,3.115-1.765,3.115-3.939l0,0
		c0-2.177-1.395-3.94-3.115-3.94h-51.501C103.818,345.621,102.424,347.385,102.424,349.562L102.424,349.562z"/>
	<path fill="#D1D3D4" d="M123.789,371.413c0,3.899,3.161,7.055,7.058,7.055h56.778c3.894,0,7.055-3.155,7.055-7.055l0,0
		c0-3.895-3.161-7.055-7.055-7.055h-56.778C126.95,364.358,123.789,367.519,123.789,371.413L123.789,371.413z"/>
	<path fill="#F1F2F2" d="M121.043,454.403c0-2.983,2.416-5.399,5.4-5.399h43.656c2.984,0,5.397,2.416,5.397,5.399l0,0
		c0,2.983-2.414,5.399-5.397,5.399h-43.656C123.459,459.803,121.043,457.387,121.043,454.403L121.043,454.403z"/>
	<path fill="#F1F2F2" d="M149.714,443.953c0,1.025,0.831,1.86,1.858,1.86h27.981c1.025,0,1.858-0.835,1.858-1.86l0,0
		c0-1.025-0.833-1.861-1.858-1.861h-27.981C150.544,442.092,149.714,442.928,149.714,443.953L149.714,443.953z"/>
	<path fill="#F1F2F2" d="M136.372,430.484c0,1.283,1.042,2.325,2.325,2.325h47.72c1.286,0,2.325-1.042,2.325-2.325l0,0
		c0-1.282-1.039-2.324-2.325-2.324h-47.72C137.414,428.16,136.372,429.202,136.372,430.484L136.372,430.484z"/>
	<path fill="#D1D3D4" d="M147.347,332.016c0,2.801,2.264,5.073,5.062,5.073h37.882c2.798,0,5.068-2.272,5.068-5.073l0,0
		c0-2.794-2.27-5.063-5.068-5.063h-37.882C149.611,326.953,147.347,329.222,147.347,332.016L147.347,332.016z"/>
	<path fill="#E6E7E8" d="M147.229,201.338c0,2.984,2.417,5.4,5.4,5.4h31.701c2.978,0,5.397-2.416,5.397-5.4l0,0
		c0-2.98-2.419-5.399-5.397-5.399h-31.701C149.646,195.938,147.229,198.358,147.229,201.338L147.229,201.338z"/>
	<path fill="#D6DE23" d="M63.047,413.071c0,5.772,4.678,10.45,10.45,10.45h75.704c5.772,0,10.45-4.678,10.45-10.45l0,0
		c0-5.772-4.678-10.45-10.45-10.45H73.498C67.726,402.621,63.047,407.299,63.047,413.071L63.047,413.071z"/>
	<path fill="#D6DE23" d="M69.088,389.21c0,3.562,2.886,6.448,6.441,6.448h39.056c3.56,0,6.448-2.887,6.448-6.448l0,0
		c0-3.556-2.889-6.442-6.448-6.442H75.53C71.974,382.768,69.088,385.654,69.088,389.21L69.088,389.21z"/>
	<path fill="#D6DE23" d="M41.683,452.783c0,2.816,2.29,5.107,5.11,5.107h66.416c2.817,0,5.108-2.291,5.108-5.107l0,0
		c0-2.823-2.291-5.108-5.108-5.108H46.793C43.973,447.675,41.683,449.96,41.683,452.783L41.683,452.783z"/>
	<path fill="#D6DE23" d="M0.808,435.129c0,1.289,1.039,2.324,2.322,2.324h136.546c1.285,0,2.325-1.035,2.325-2.324l0,0
		c0-1.283-1.04-2.319-2.325-2.319H3.13C1.847,432.81,0.808,433.846,0.808,435.129L0.808,435.129z"/>
	<path fill="#D6DE23" d="M26.474,222.986c0,1.028,0.833,1.858,1.858,1.858h66.416c1.025,0,1.858-0.83,1.858-1.858l0,0
		c0-1.024-0.833-1.858-1.858-1.858H28.332C27.306,221.128,26.474,221.961,26.474,222.986L26.474,222.986z"/>
	<path fill="#D6DE23" d="M92.191,315.009c0,4.615,3.742,8.36,8.363,8.36h19.042c4.619,0,8.358-3.745,8.358-8.36l0,0
		c0-4.621-3.739-8.36-8.358-8.36h-19.042C95.933,306.648,92.191,310.388,92.191,315.009L92.191,315.009z"/>
	<path fill="#D6DE23" d="M315.24,352.458c0,1.54,1.248,2.789,2.785,2.789h38.086c1.54,0,2.788-1.249,2.788-2.789l0,0
		c0-1.534-1.248-2.788-2.788-2.788h-38.086C316.488,349.67,315.24,350.924,315.24,352.458L315.24,352.458z"/>
	<path fill="#FFDF00" d="M318.025,250.978c0,1.925-1.557,3.481-3.484,3.481h-47.37c-1.924,0-3.483-1.557-3.483-3.481l0,0
		c0-1.924,1.56-3.481,3.483-3.481h47.37C316.469,247.496,318.025,249.054,318.025,250.978L318.025,250.978z"/>
	<path fill="#FFDF00" d="M285.982,237.809c0,2.866,2.315,5.181,5.18,5.181h16.577c2.863,0,5.179-2.315,5.179-5.181l0,0
		c0-2.858-2.315-5.177-5.179-5.177h-16.577C288.298,232.632,285.982,234.951,285.982,237.809L285.982,237.809z"/>
	<path fill="#FFDF00" d="M308.738,307.873c0,1.793-1.455,3.248-3.253,3.248h-50.62c-1.799,0-3.255-1.455-3.255-3.248l0,0
		c0-1.791,1.456-3.252,3.255-3.252h50.62C307.283,304.621,308.738,306.082,308.738,307.873L308.738,307.873z"/>
	<path fill="#D6DE23" d="M386.535,402.5c0,4.043,3.275,7.318,7.315,7.318h27.867c4.036,0,7.313-3.275,7.313-7.318l0,0
		c0-4.037-3.276-7.313-7.313-7.313h-27.867C389.811,395.188,386.535,398.463,386.535,402.5L386.535,402.5z"/>
	<path fill="#D6DE23" d="M305.371,388.047c0,1.06,0.858,1.913,1.918,1.913h27.867c1.057,0,1.916-0.854,1.916-1.913l0,0
		c0-1.06-0.859-1.917-1.916-1.917h-27.867C306.229,386.13,305.371,386.987,305.371,388.047L305.371,388.047z"/>
	<path fill="#FFFFFF" d="M74.11,110.537c0,5.397-4.378,9.772-9.775,9.772h-5.863c-5.397,0-9.772-4.375-9.772-9.772l0,0
		c0-5.4,4.375-9.774,9.772-9.774h5.863C69.732,100.762,74.11,105.137,74.11,110.537L74.11,110.537z"/>
	<path fill="#FFFFFF" d="M398.566,249.054c0,5.525-4.481,10.01-10.01,10.01h-10.766c-5.528,0-10.01-4.484-10.01-10.01l0,0
		c0-5.525,4.481-10.008,10.01-10.008h10.766C394.085,239.046,398.566,243.528,398.566,249.054L398.566,249.054z"/>
</g>
</svg>
