<?xml version="1.0" encoding="utf-8"?>
<!-- Generator: Adobe Illustrator 16.0.0, SVG Export Plug-In . SVG Version: 6.00 Build 0)  -->
<!DOCTYPE svg PUBLIC "-//W3C//DTD SVG 1.1//EN" "http://www.w3.org/Graphics/SVG/1.1/DTD/svg11.dtd">
<svg version="1.1" id="Layer_1" xmlns="http://www.w3.org/2000/svg" xmlns:xlink="http://www.w3.org/1999/xlink" x="0px" y="0px"
	 width="480px" height="480px" viewBox="0 0 480 480" enable-background="new 0 0 480 480" xml:space="preserve">
<rect x="-20.993" y="-78.5" display="none" fill="#DEC970" width="521.986" height="637"/>
<g>
	<g>
		<circle fill="#D0B52B" cx="244.982" cy="95.009" r="33.617"/>
		<g>
			<g>
				<path fill="#D0B52B" d="M208.106,108.407c-1.525-4.182-2.374-8.689-2.374-13.398c0-10.086,3.806-19.277,10.055-26.231
					c-5.048-3.901-11.376-6.226-18.252-6.226c-16.511,0-29.893,13.381-29.893,29.892c0,16.175,12.846,29.337,28.889,29.866
					l6.653-7.991L208.106,108.407z"/>
			</g>
		</g>
		<path fill="#D0B52B" d="M213.135,117.94c-0.842-1.164-1.615-2.376-2.328-3.632l-5.923,7.114l-14.339,17.222l4.226,3.853h47.2
			v-8.362C230.1,133.231,219.715,127.057,213.135,117.94z"/>
		<g>
			<g>
				<path fill="#D0B52B" d="M320.773,92.443c0-16.511-13.385-29.892-29.894-29.892c-6.473,0-12.45,2.058-17.344,5.547
					c6.623,7.029,10.688,16.492,10.688,26.91c0,5.007-0.955,9.783-2.668,14.184l4.432,5.317l6.479,7.783
					C308.242,121.466,320.773,108.417,320.773,92.443z"/>
			</g>
		</g>
		<path fill="#D0B52B" d="M283.664,121.454l-5.096-6.122c-0.685,1.121-1.418,2.202-2.199,3.245
			c-6.869,9.13-17.629,15.161-29.813,15.646v8.275h47.192l4.228-3.853L283.664,121.454z"/>
		<path fill="#C09F35" d="M204.347,122.072c-0.349,0.419,2.452,3.675,2.718,4.093c1.217,1.917,2.188,3.981,3.481,5.85
			c1.653,2.393,4.195,4.25,6.83,5.438c3.748,1.687,7.945,2.289,11.898,3.331c2.715,0.713,5.442,1.431,8.245,1.712h-42.75
			l-4.226-3.853c1.332-1.593,2.655-3.186,3.984-4.782c2.334-2.8,4.667-5.607,7.002-8.41
			C202.469,124.327,203.407,123.197,204.347,122.072z"/>
		<path fill="#C09F35" d="M284.178,122.072c0.35,0.419-2.449,3.675-2.719,4.093c-1.221,1.917-2.189,3.981-3.479,5.85
			c-1.66,2.393-4.201,4.25-6.834,5.438c-3.748,1.687-7.943,2.289-11.898,3.331c-2.711,0.713-5.441,1.431-8.244,1.712h42.75
			l4.223-3.853c-1.324-1.593-2.647-3.186-3.979-4.782c-2.334-2.8-4.668-5.607-7.002-8.41
			C286.059,124.327,285.117,123.197,284.178,122.072z"/>
		<path fill="#D0B52B" d="M195.794,146.182c0.007,0,97.212,0,97.212,0s-28.979,46.866-17.058,99.532c0,0,9.487,35.938,44.823,58.294
			c0,0-66.685,35.44-155.453,0c0.858,0.348,4.047-2.535,4.59-2.957c3.717-2.865,7.24-6.007,10.748-9.115
			c15.781-14.004,28.335-31.607,33.36-52.365c1.377-5.686,2.271-11.672,2.576-17.521c0.836-15.917-1.754-31.691-6.936-46.733
			c-1.685-4.893-3.668-9.676-5.923-14.334C202.895,159.23,197.358,146.182,195.794,146.182z"/>
		<g>
			<path fill="#C09F35" d="M275.949,245.714c-11.924-52.667,17.057-99.532,17.057-99.532s-1.879,0-5.104,0
				c0,0-26.021,46.866-15.316,99.532c0,0,8.518,35.938,40.238,58.294c0,0-26.988,15.979-68.844,15.753
				c46.686,0.252,76.793-15.753,76.793-15.753C285.438,281.65,275.949,245.714,275.949,245.714z"/>
			<path fill="#C09F35" d="M177.394,301.051c3.336-2.865,6.498-6.007,9.647-9.115c14.167-14.004,25.438-31.607,29.949-52.365
				c1.238-5.686,2.037-11.672,2.311-17.521c0.754-15.917-1.572-31.691-6.223-46.733c-1.515-4.893-3.297-9.676-5.319-14.334
				c-0.759-1.752-5.729-14.801-7.133-14.801c-3.052,0-4.829,0-4.832,0c1.563,0,7.101,13.049,7.945,14.801
				c2.255,4.658,4.238,9.441,5.923,14.334c5.182,15.042,7.771,30.816,6.936,46.733c-0.308,5.849-1.198,11.834-2.576,17.521
				c-5.025,20.753-17.579,38.361-33.36,52.365c-3.508,3.108-7.031,6.25-10.748,9.115c-0.543,0.422-3.731,3.305-4.59,2.957
				c28.729,11.471,55.135,15.516,77.726,15.736c-20.277-0.229-43.988-4.271-69.773-15.736
				C174.041,304.354,176.902,301.473,177.394,301.051z"/>
		</g>
		<path fill="#D0B52B" d="M335.824,347.463c0,53.92-41.715,95.662-92.777,95.662c-51.059,0-92.131-41.742-92.131-95.662
			c0-14.188,8.023-39.84,8.023-39.84s34.577,17.256,85.131,17.006c50.552-0.25,84.277-17.764,84.277-17.764
			S335.824,332.547,335.824,347.463z"/>
		<g>
			<g>
				<g>
					<path fill="#C09F35" d="M242.777,443.125c0.09,0,0.18-0.008,0.271-0.008c-0.103,0-0.196,0.008-0.299,0.008
						C242.762,443.125,242.77,443.125,242.777,443.125z"/>
				</g>
				<g>
					<path fill="#C09F35" d="M243.664,324.629c-0.205,0-0.41-0.005-0.617-0.005c0.199,0,0.395,0.005,0.592,0.005
						C243.648,324.629,243.654,324.629,243.664,324.629z"/>
				</g>
				<g>
					<path fill="#C09F35" d="M335.502,347.463c0-14.916-7.48-40.598-7.48-40.598s-4.28,2.223-12.063,5.091
						c1.826,8.246,5.146,24.699,5.146,35.507c0,53.804-35.068,95.479-78.049,95.654
						C293.965,442.942,335.502,401.267,335.502,347.463z"/>
				</g>
				<g>
					<path fill="#C09F35" d="M165.002,347.463c0-10.369,3.615-26.854,5.562-34.978c-7.69-2.742-11.948-4.863-11.948-4.863
						s-8.025,25.651-8.025,39.841c0,53.92,41.074,95.662,92.134,95.662c0.01,0,0.021,0,0.025,0
						C199.661,443.107,165.002,401.372,165.002,347.463z"/>
				</g>
			</g>
		</g>
		<path fill="#D0B52B" d="M219.477,444.118c0,0,23.188,11.264,47.859,0.994l31.801,23.351c0,0-43.887,25.506-109.306,0.829
			L219.477,444.118z"/>
		<g>
			<g>
				<g>
					<path fill="#C09F35" d="M288.342,460.599l-21.088-15.483c-24.678,10.27-47.863-0.994-47.863-0.994l-18.765,15.934
						C238.309,469.36,268.672,465.738,288.342,460.599z"/>
				</g>
			</g>
		</g>
		<g>
			<g>
				<g>
					<path fill="#A4852F" d="M284.506,457.706l-17.15-12.596c-24.674,10.27-47.856-0.994-47.856-0.994l-15.466,13.136
						C240.18,467.529,268.48,462.709,284.506,457.706z"/>
				</g>
			</g>
		</g>
		<g>
			<g>
				<path fill="#BA9E30" d="M167.703,92.482c0-16.509,13.383-29.892,29.893-29.892c5.804,0,11.211,1.67,15.794,4.533
					c-16.71,1.95-29.681,16.146-29.681,33.384c0,8.028,2.814,15.399,7.513,21.182C177.777,118.765,167.703,106.807,167.703,92.482z"
					/>
			</g>
		</g>
		<g>
			<g>
				<path fill="#BA9E30" d="M320.773,92.482c0-16.509-13.385-29.892-29.894-29.892c-5.813,0-11.215,1.67-15.801,4.533
					c16.711,1.95,29.687,16.146,29.687,33.384c0,8.028-2.816,15.399-7.521,21.182C310.697,118.765,320.773,106.807,320.773,92.482z"
					/>
			</g>
		</g>
		<path fill="none" d="M279.076,130.614c0.021,0,0.041,0,0.059,0"/>
		<path fill="none" d="M270.008,136.515c0.65-0.041,1.125-0.531,1.623-0.909c1.162-0.882,2.139-1.736,3.031-2.885
			c0.773-0.992,1.445-1.44,2.674-1.734"/>
		<path fill="#C09F35" d="M265.77,254.253c-0.291-1.28-0.451-1.832-0.461-1.771c-0.076,0.434,7.689,32.854,30.119,48.658
			c0,0-21.709,12.854-55.377,12.663c37.551,0.207,61.77-12.663,61.77-12.663C273.398,283.161,265.77,254.253,265.77,254.253z"/>
		<path fill="#C09F35" d="M316.053,319.761c-0.688-3.14-1.174-5.092-1.174-5.092s-28.455,17.505-71.117,17.763
			c0.029,0,0.059,0,0.084,0C276.408,332.271,301.971,324.951,316.053,319.761z"/>
	</g>
	<path fill="#BA9E30" d="M119.163,81.306c0,3.768,3.055,6.828,6.825,6.828h51.699c3.771,0,6.825-3.06,6.825-6.828l0,0
		c0-3.77-3.055-6.825-6.825-6.825h-51.699C122.219,74.479,119.163,77.536,119.163,81.306L119.163,81.306z"/>
	<path fill="#BA9E30" d="M111.044,53.444c0,2.713,2.199,4.913,4.912,4.913h17.837c2.713,0,4.912-2.199,4.912-4.913l0,0
		c0-2.712-2.199-4.912-4.912-4.912h-17.837C113.243,48.533,111.044,50.731,111.044,53.444L111.044,53.444z"/>
	<path fill="#D0B52B" d="M146.823,264.027c0,4.429,3.59,8.019,8.018,8.019h55.935c4.427,0,8.015-3.59,8.015-8.019l0,0
		c0-4.432-3.588-8.021-8.015-8.021h-55.935C150.413,256.007,146.823,259.596,146.823,264.027L146.823,264.027z"/>
	<path fill="#D0B52B" d="M130.19,243.376c0,3.654,2.961,6.615,6.614,6.615h16.036c3.651,0,6.614-2.961,6.614-6.615l0,0
		c0-3.65-2.962-6.613-6.614-6.613h-16.036C133.151,236.763,130.19,239.726,130.19,243.376L130.19,243.376z"/>
	<path fill="#D0B52B" d="M184.513,171.012c0,1.329,1.079,2.407,2.405,2.407h29.469c1.328,0,2.404-1.079,2.404-2.407l0,0
		c0-1.326-1.076-2.405-2.404-2.405h-29.469C185.592,168.605,184.513,169.685,184.513,171.012L184.513,171.012z"/>
	<path fill="#D0B52B" d="M165.322,230.146c0,5.647,4.578,10.225,10.224,10.225h7.764c5.645,0,10.224-4.578,10.224-10.225l0,0
		c0-5.646-4.58-10.222-10.224-10.222h-7.764C169.9,219.925,165.322,224.5,165.322,230.146L165.322,230.146z"/>
	<path fill="#D0B52B" d="M98.516,380.493c0,6.478,5.25,11.729,11.728,11.729h68.746c6.478,0,11.727-5.252,11.727-11.729l0,0
		c0-6.479-5.249-11.728-11.727-11.728h-68.746C103.765,368.769,98.516,374.017,98.516,380.493L98.516,380.493z"/>
	<path fill="#D0B52B" d="M101.724,337.995c0,5.979,4.844,10.826,10.823,10.826h13.231c5.979,0,10.826-4.851,10.826-10.826l0,0
		c0-5.979-4.847-10.823-10.826-10.823h-13.231C106.568,327.17,101.724,332.017,101.724,337.995L101.724,337.995z"/>
	<path fill="#BA9E30" d="M392.641,40.75c0,19.848-16.09,35.935-35.936,35.935l0,0c-19.848,0-35.936-16.087-35.936-35.935l0,0
		c0-19.847,16.088-35.934,35.936-35.934l0,0C376.553,4.815,392.641,20.902,392.641,40.75L392.641,40.75z"/>
	<path fill="#BA9E30" d="M267.801,24.077c0,3.154,2.561,5.712,5.715,5.712h30.367c3.158,0,5.715-2.558,5.715-5.712l0,0
		c0-3.154-2.557-5.712-5.715-5.712h-30.367C270.359,18.364,267.801,20.921,267.801,24.077L267.801,24.077z"/>
	<path fill="#BA9E30" d="M310.65,13.854c0,3.155,2.557,5.712,5.711,5.712h30.371c3.151,0,5.713-2.558,5.713-5.712l0,0
		c0-3.156-2.559-5.715-5.713-5.715h-30.371C313.207,8.14,310.65,10.698,310.65,13.854L310.65,13.854z"/>
	<path fill="#BA9E30" d="M294.563,50.438c0,3.595,2.918,6.515,6.521,6.515h7.412c3.6,0,6.519-2.919,6.519-6.515l0,0
		c0-3.598-2.919-6.517-6.519-6.517h-7.412C297.48,43.921,294.563,46.841,294.563,50.438L294.563,50.438z"/>
	<path fill="#EDCA37" d="M255.775,2.567c0,1.244,1.004,2.248,2.244,2.248h79.698c1.24,0,2.246-1.004,2.246-2.248l0,0
		c0-1.239-1.006-2.245-2.246-2.245H258.02C256.779,0.323,255.775,1.33,255.775,2.567L255.775,2.567z"/>
	<path fill="#BA9E30" d="M303.582,70.979c0,3.149,2.559,5.705,5.711,5.705h44.51c3.154,0,5.709-2.556,5.709-5.705l0,0
		c0-3.152-2.555-5.708-5.709-5.708h-44.51C306.141,65.271,303.582,67.828,303.582,70.979L303.582,70.979z"/>
	<path fill="#EDCA37" d="M270.008,83.962c0,1.469,1.188,2.657,2.656,2.657h81.387c1.469,0,2.656-1.188,2.656-2.657l0,0
		c0-1.467-1.188-2.657-2.656-2.657h-81.387C271.195,81.306,270.008,82.496,270.008,83.962L270.008,83.962z"/>
	<path fill="#D0B52B" d="M91.899,204.49c0,1.993,1.615,3.608,3.608,3.608h110.955c1.991,0,3.608-1.615,3.608-3.608l0,0
		c0-1.991-1.617-3.608-3.608-3.608H95.507C93.514,200.882,91.899,202.499,91.899,204.49L91.899,204.49z"/>
	<path fill="none" stroke="#D0B52B" stroke-width="2" stroke-miterlimit="10" d="M94.305,287.029c0,3.9,3.164,7.063,7.065,7.063
		h34.278c3.904,0,7.068-3.162,7.068-7.063l0,0c0-3.901-3.164-7.065-7.068-7.065H101.37
		C97.469,279.964,94.305,283.128,94.305,287.029L94.305,287.029z"/>
	<path fill="#BA9E30" d="M137.602,132.175c0,4.068,3.3,7.366,7.368,7.366h23.152c4.068,0,7.369-3.297,7.369-7.366l0,0
		c0-4.069-3.3-7.368-7.369-7.368h-23.151C140.902,124.807,137.602,128.105,137.602,132.175L137.602,132.175z"/>
	<path fill="#BA9E30" d="M113.247,112.638c0,1.489,1.206,2.693,2.691,2.693h76.706c1.485,0,2.691-1.205,2.691-2.693l0,0
		c0-1.489-1.206-2.694-2.691-2.694h-76.706C114.453,109.943,113.247,111.148,113.247,112.638L113.247,112.638z"/>
	<path fill="#D0B52B" d="M75.063,317.019c0,1.772,1.435,3.208,3.206,3.208h92.011c1.77,0,3.206-1.436,3.206-3.208l0,0
		c0-1.771-1.436-3.208-3.206-3.208H78.269C76.498,313.811,75.063,315.247,75.063,317.019L75.063,317.019z"/>
	<path fill="#EDCA37" d="M233.822,98.333c0,1.835,1.49,3.322,3.322,3.322h39.965c1.834,0,3.32-1.486,3.32-3.322l0,0
		c0-1.837-1.486-3.324-3.32-3.324h-39.965C235.313,95.009,233.822,96.496,233.822,98.333L233.822,98.333z"/>
	<path fill="#EDCA37" d="M232.715,57.072c0,3.666,2.971,6.636,6.637,6.636h12.189c3.666,0,6.639-2.97,6.639-6.636l0,0
		c0-3.664-2.973-6.633-6.639-6.633h-12.189C235.686,50.438,232.715,53.409,232.715,57.072L232.715,57.072z"/>
	<path fill="#EDCA37" d="M116.254,153.522c0,2.24,1.818,4.059,4.059,4.059h58.434c2.243,0,4.062-1.818,4.062-4.059l0,0
		c0-2.24-1.819-4.059-4.062-4.059h-58.434C118.073,149.464,116.254,151.283,116.254,153.522L116.254,153.522z"/>
	<path fill="#EDCA37" d="M123.433,97.281c0,2.111,1.714,3.826,3.826,3.826h12.77c2.112,0,3.829-1.714,3.829-3.826l0,0
		c0-2.114-1.717-3.829-3.829-3.829h-12.77C125.147,93.453,123.433,95.167,123.433,97.281L123.433,97.281z"/>
	<path fill="#EDCA37" d="M31.761,187.802c0,1.911,1.546,3.458,3.457,3.458h91.513c1.911,0,3.459-1.547,3.459-3.458l0,0
		c0-1.911-1.549-3.458-3.459-3.458H35.218C33.307,184.344,31.761,185.891,31.761,187.802L31.761,187.802z"/>
	<path fill="#EDCA37" d="M159.454,219.374c0,2.575,2.085,4.661,4.661,4.661h35.408c2.575,0,4.663-2.085,4.663-4.661l0,0
		c0-2.575-2.087-4.66-4.663-4.66h-35.408C161.54,214.713,159.454,216.799,159.454,219.374L159.454,219.374z"/>
	<path fill="#EDCA37" d="M248.857,125.005c0,3.099,2.512,5.608,5.608,5.608h34.482c3.1,0,5.604-2.509,5.604-5.608l0,0
		c0-3.099-2.512-5.61-5.604-5.61h-34.482C251.369,119.395,248.857,121.907,248.857,125.005L248.857,125.005z"/>
	<path fill="#EDCA37" d="M137.602,62.263c0,1.663,1.348,3.009,3.009,3.009h55.626c1.661,0,3.007-1.346,3.007-3.009l0,0
		c0-1.659-1.346-3.006-3.007-3.006h-55.626C138.951,59.257,137.602,60.604,137.602,62.263L137.602,62.263z"/>
	<path fill="#FFFFFF" d="M170.278,16.86c0,5.737,4.648,10.384,10.385,10.384h36.966c5.734,0,10.383-4.647,10.383-10.384l0,0
		c0-5.734-4.646-10.384-10.383-10.384h-36.966C174.926,6.477,170.278,11.126,170.278,16.86L170.278,16.86z"/>
	<path fill="#FFFFFF" d="M245.25,65.373c0,1.882,1.525,3.407,3.406,3.407h35.283c1.883,0,3.406-1.524,3.406-3.407l0,0
		c0-1.884-1.523-3.406-3.406-3.406h-35.283C246.775,61.967,245.25,63.49,245.25,65.373L245.25,65.373z"/>
	<path fill="#FFFFFF" d="M264.461,145.354c0,1.993,1.615,3.608,3.609,3.608h48.51c1.994,0,3.611-1.615,3.611-3.608l0,0
		c0-1.99-1.617-3.607-3.611-3.607h-48.51C266.076,141.748,264.461,143.365,264.461,145.354L264.461,145.354z"/>
	<path fill="#FFFFFF" d="M346.684,84.416c0,6.062,4.912,10.972,10.971,10.972h19.748c6.063,0,10.976-4.91,10.976-10.972l0,0
		c0-6.061-4.91-10.971-10.976-10.971h-19.748C351.596,73.444,346.684,78.354,346.684,84.416L346.684,84.416z"/>
	<path fill="#FFFFFF" d="M270.91,10.044c0,1.661,1.344,3.007,3.006,3.007h22.049c1.66,0,3.006-1.346,3.006-3.007l0,0
		c0-1.661-1.346-3.006-3.006-3.006h-22.049C272.254,7.039,270.91,8.385,270.91,10.044L270.91,10.044z"/>
	<path fill="#FFFFFF" d="M175.091,90.829c0,3.542,2.873,6.416,6.416,6.416h10.825c3.542,0,6.414-2.874,6.414-6.416l0,0
		c0-3.542-2.871-6.413-6.414-6.413h-10.825C177.964,84.416,175.091,87.287,175.091,90.829L175.091,90.829z"/>
	<path fill="#FFFFFF" d="M88.491,141.748c0,1.549,1.256,2.808,2.808,2.808h42.095c1.552,0,2.808-1.258,2.808-2.808l0,0
		c0-1.549-1.255-2.805-2.808-2.805H91.299C89.746,138.941,88.491,140.198,88.491,141.748L88.491,141.748z"/>
	<path fill="#FFFFFF" d="M50.003,38.109c0,4.539,3.683,8.219,8.221,8.219h42.898c4.538,0,8.219-3.68,8.219-8.219l0,0
		c0-4.539-3.681-8.219-8.219-8.219H58.224C53.686,29.891,50.003,33.57,50.003,38.109L50.003,38.109z"/>
	<path fill="none" stroke="#1560AD" stroke-miterlimit="10" d="M31.059,89.463c0,6.063,4.911,10.977,10.977,10.977h57.296
		c6.062,0,10.977-4.915,10.977-10.977l0,0c0-6.061-4.915-10.976-10.977-10.976H42.035C35.97,78.488,31.059,83.402,31.059,89.463
		L31.059,89.463z"/>
	<path fill="#1560AD" d="M197.542,48.533c0,1.661,1.345,3.009,3.006,3.009h36.885c1.66,0,3.01-1.348,3.01-3.009l0,0
		c0-1.661-1.35-3.007-3.01-3.007h-36.885C198.888,45.525,197.542,46.872,197.542,48.533L197.542,48.533z"/>
	<path fill="#1560AD" d="M332.298,146.183c0,3.652,2.964,6.614,6.617,6.614h53.319c3.652,0,6.614-2.962,6.614-6.614l0,0
		c0-3.654-2.963-6.614-6.614-6.614h-53.319C335.261,139.568,332.298,142.528,332.298,146.183L332.298,146.183z"/>
	<path fill="none" stroke="#1560AD" stroke-miterlimit="10" d="M139.238,186.749c0,2.085,1.692,3.78,3.779,3.78h52.918
		c2.085,0,3.779-1.694,3.779-3.78l0,0c0-2.087-1.694-3.78-3.779-3.78h-52.918C140.931,182.971,139.238,184.664,139.238,186.749
		L139.238,186.749z"/>
	<path fill="#1560AD" d="M117.156,23.476c0,5.314,4.308,9.623,9.623,9.623h11.424c5.314,0,9.623-4.309,9.623-9.623l0,0
		c0-5.31-4.309-9.621-9.623-9.621h-11.424C121.464,13.854,117.156,18.165,117.156,23.476L117.156,23.476z"/>
	<path fill="none" stroke="#1560AD" stroke-miterlimit="10" d="M316.963,223.282c0,5.314,4.309,9.623,9.623,9.623h11.424
		c5.314,0,9.623-4.309,9.623-9.623l0,0c0-5.31-4.309-9.621-9.623-9.621h-11.424C321.271,213.661,316.963,217.972,316.963,223.282
		L316.963,223.282z"/>
	<path fill="#1560AD" d="M27.824,249.99c0,2.326,1.884,4.211,4.209,4.211h42.698c2.326,0,4.209-1.885,4.209-4.211l0,0
		c0-2.324-1.884-4.209-4.209-4.209H32.033C29.707,245.781,27.824,247.667,27.824,249.99L27.824,249.99z"/>
</g>
</svg>
