<?xml version="1.0" encoding="utf-8"?>
<!-- Generator: Adobe Illustrator 16.0.0, SVG Export Plug-In . SVG Version: 6.00 Build 0)  -->
<!DOCTYPE svg PUBLIC "-//W3C//DTD SVG 1.1//EN" "http://www.w3.org/Graphics/SVG/1.1/DTD/svg11.dtd">
<svg version="1.1" id="Layer_1" xmlns="http://www.w3.org/2000/svg" xmlns:xlink="http://www.w3.org/1999/xlink" x="0px" y="0px"
	 width="480px" height="480px" viewBox="0 0 480 480" enable-background="new 0 0 480 480" xml:space="preserve">
<rect x="-20.993" y="-78.5" display="none" fill="#DEC970" width="521.986" height="637"/>
<g>
	<g>
		<circle fill="#D0B52B" cx="244.982" cy="95.009" r="33.617"/>
		<g>
			<g>
				<path fill="#D0B52B" d="M208.106,108.407c-1.525-4.182-2.374-8.689-2.374-13.398c0-10.086,3.806-19.277,10.055-26.231
					c-5.048-3.901-11.376-6.226-18.252-6.226c-16.511,0-29.893,13.381-29.893,29.892c0,16.175,12.846,29.337,28.889,29.866
					l6.653-7.991L208.106,108.407z"/>
			</g>
		</g>
		<path fill="#D0B52B" d="M213.135,117.94c-0.842-1.164-1.615-2.376-2.328-3.632l-5.923,7.114l-14.339,17.222l4.226,3.853h47.2
			v-8.362C230.1,133.231,219.715,127.057,213.135,117.94z"/>
		<g>
			<g>
				<path fill="#D0B52B" d="M320.773,92.443c0-16.511-13.385-29.892-29.896-29.892c-6.473,0-12.447,2.058-17.344,5.547
					c6.623,7.029,10.688,16.492,10.688,26.91c0,5.007-0.955,9.783-2.668,14.184l4.432,5.317l6.479,7.783
					C308.242,121.466,320.773,108.417,320.773,92.443z"/>
			</g>
		</g>
		<path fill="#D0B52B" d="M283.664,121.454l-5.096-6.122c-0.688,1.121-1.418,2.202-2.199,3.245
			c-6.869,9.13-17.629,15.161-29.813,15.646v8.275h47.188l4.229-3.853L283.664,121.454z"/>
		<path fill="#C09F35" d="M204.347,122.072c-0.349,0.419,2.452,3.675,2.718,4.093c1.217,1.917,2.188,3.981,3.481,5.85
			c1.653,2.393,4.195,4.25,6.83,5.438c3.748,1.687,7.945,2.289,11.898,3.331c2.715,0.713,5.442,1.431,8.245,1.712h-42.75
			l-4.226-3.853c1.332-1.593,2.655-3.186,3.984-4.782c2.334-2.8,4.667-5.607,7.002-8.41
			C202.469,124.327,203.407,123.197,204.347,122.072z"/>
		<path fill="#C09F35" d="M284.178,122.072c0.35,0.419-2.449,3.675-2.719,4.093c-1.221,1.917-2.189,3.981-3.479,5.85
			c-1.66,2.393-4.201,4.25-6.834,5.438c-3.748,1.687-7.943,2.289-11.898,3.331c-2.711,0.713-5.441,1.431-8.244,1.712h42.75
			l4.223-3.853c-1.324-1.593-2.646-3.186-3.979-4.782c-2.334-2.8-4.668-5.607-7.002-8.41
			C286.059,124.327,285.117,123.197,284.178,122.072z"/>
		<path fill="#D0B52B" d="M195.794,146.182c0.007,0,97.212,0,97.212,0s-28.979,46.866-17.058,99.532c0,0,9.487,35.938,44.823,58.294
			c0,0-66.688,35.44-155.458,0c0.858,0.348,4.047-2.535,4.59-2.957c3.717-2.865,7.24-6.007,10.748-9.115
			c15.781-14.004,28.335-31.604,33.36-52.365c1.377-5.686,2.271-11.672,2.576-17.521c0.836-15.917-1.754-31.691-6.936-46.733
			c-1.685-4.893-3.668-9.676-5.923-14.334C202.895,159.23,197.358,146.182,195.794,146.182z"/>
		<g>
			<path fill="#C09F35" d="M275.949,245.714c-11.924-52.667,17.057-99.532,17.057-99.532s-1.879,0-5.104,0
				c0,0-26.021,46.866-15.316,99.532c0,0,8.518,35.938,40.238,58.294c0,0-26.988,15.979-68.844,15.753
				c46.686,0.252,76.793-15.753,76.793-15.753C285.438,281.65,275.949,245.714,275.949,245.714z"/>
			<path fill="#C09F35" d="M177.394,301.051c3.336-2.865,6.498-6.007,9.647-9.115c14.167-14.004,25.438-31.604,29.949-52.365
				c1.238-5.686,2.037-11.672,2.311-17.521c0.754-15.917-1.572-31.691-6.223-46.733c-1.515-4.893-3.297-9.676-5.319-14.334
				c-0.759-1.752-5.729-14.801-7.133-14.801c-3.052,0-4.829,0-4.832,0c1.563,0,7.101,13.049,7.945,14.801
				c2.255,4.658,4.238,9.441,5.923,14.334c5.182,15.042,7.771,30.816,6.936,46.733c-0.308,5.849-1.198,11.834-2.576,17.521
				c-5.025,20.753-17.579,38.361-33.36,52.365c-3.508,3.108-7.031,6.25-10.748,9.115c-0.543,0.422-3.731,3.305-4.59,2.957
				c28.729,11.471,55.135,15.521,77.726,15.736c-20.277-0.229-43.988-4.271-69.773-15.736
				C174.041,304.354,176.902,301.473,177.394,301.051z"/>
		</g>
		<path fill="#D0B52B" d="M335.824,347.463c0,53.92-41.715,95.662-92.777,95.662c-51.059,0-92.131-41.742-92.131-95.662
			c0-14.188,8.023-39.84,8.023-39.84s34.577,17.256,85.131,17.006c50.552-0.25,84.277-17.764,84.277-17.764
			S335.824,332.547,335.824,347.463z"/>
		<g>
			<g>
				<g>
					<path fill="#C09F35" d="M242.777,443.125c0.09,0,0.18-0.008,0.271-0.008c-0.103,0-0.196,0.008-0.299,0.008
						C242.762,443.125,242.77,443.125,242.777,443.125z"/>
				</g>
				<g>
					<path fill="#C09F35" d="M243.664,324.629c-0.205,0-0.41-0.005-0.617-0.005c0.199,0,0.395,0.005,0.592,0.005
						C243.648,324.629,243.654,324.629,243.664,324.629z"/>
				</g>
				<g>
					<path fill="#C09F35" d="M335.502,347.463c0-14.916-7.48-40.598-7.48-40.598s-4.272,2.223-12.063,5.091
						c1.826,8.246,5.146,24.699,5.146,35.507c0,53.804-35.068,95.479-78.049,95.654
						C293.965,442.942,335.502,401.267,335.502,347.463z"/>
				</g>
				<g>
					<path fill="#C09F35" d="M165.002,347.463c0-10.369,3.615-26.854,5.562-34.978c-7.69-2.742-11.948-4.863-11.948-4.863
						s-8.025,25.651-8.025,39.841c0,53.92,41.074,95.662,92.134,95.662c0.01,0,0.021,0,0.025,0
						C199.661,443.107,165.002,401.372,165.002,347.463z"/>
				</g>
			</g>
		</g>
		<path fill="#D0B52B" d="M219.477,444.118c0,0,23.188,11.264,47.859,0.994l31.801,23.351c0,0-43.887,25.506-109.306,0.829
			L219.477,444.118z"/>
		<g>
			<g>
				<g>
					<path fill="#C09F35" d="M288.342,460.599l-21.088-15.479c-24.678,10.27-47.863-0.994-47.863-0.994l-18.765,15.934
						C238.309,469.36,268.672,465.738,288.342,460.599z"/>
				</g>
			</g>
		</g>
		<g>
			<g>
				<g>
					<path fill="#A4852F" d="M284.506,457.706l-17.15-12.596c-24.674,10.27-47.854-0.994-47.854-0.994l-15.466,13.136
						C240.18,467.529,268.48,462.709,284.506,457.706z"/>
				</g>
			</g>
		</g>
		<g>
			<g>
				<path fill="#BA9E30" d="M167.703,92.482c0-16.509,13.383-29.892,29.893-29.892c5.804,0,11.211,1.67,15.794,4.533
					c-16.71,1.95-29.681,16.146-29.681,33.384c0,8.028,2.814,15.399,7.513,21.182C177.777,118.765,167.703,106.807,167.703,92.482z"
					/>
			</g>
		</g>
		<g>
			<g>
				<path fill="#BA9E30" d="M320.773,92.482c0-16.509-13.385-29.892-29.896-29.892c-5.813,0-11.215,1.67-15.801,4.533
					c16.711,1.95,29.688,16.146,29.688,33.384c0,8.028-2.813,15.399-7.521,21.182C310.697,118.765,320.773,106.807,320.773,92.482z"
					/>
			</g>
		</g>
		<path fill="none" d="M279.076,130.614c0.021,0,0.041,0,0.059,0"/>
		<path fill="none" d="M270.008,136.515c0.65-0.041,1.125-0.531,1.623-0.909c1.162-0.882,2.139-1.736,3.031-2.885
			c0.773-0.992,1.445-1.44,2.674-1.734"/>
		<path fill="#C09F35" d="M265.77,254.253c-0.291-1.28-0.451-1.832-0.461-1.771c-0.076,0.434,7.689,32.854,30.119,48.658
			c0,0-21.709,12.854-55.377,12.655c37.551,0.207,61.77-12.655,61.77-12.655C273.398,283.161,265.77,254.253,265.77,254.253z"/>
		<path fill="#C09F35" d="M316.053,319.761c-0.688-3.14-1.174-5.092-1.174-5.092s-28.455,17.505-71.117,17.763
			c0.029,0,0.059,0,0.084,0C276.408,332.271,301.971,324.951,316.053,319.761z"/>
	</g>
	<path fill="#BA9E30" d="M73.044,55.349c0,2.713,2.199,4.913,4.912,4.913h17.837c2.713,0,4.912-2.199,4.912-4.913l0,0
		c0-2.712-2.199-4.912-4.912-4.912H77.956C75.243,50.438,73.044,52.636,73.044,55.349L73.044,55.349z"/>
	<path fill="#D0B52B" d="M165.315,264.027c0,4.429,3.59,8.019,8.018,8.019h55.935c4.427,0,8.015-3.59,8.015-8.019l0,0
		c0-4.432-3.588-8.021-8.015-8.021h-55.935C168.905,256.007,165.315,259.596,165.315,264.027L165.315,264.027z"/>
	<path fill="#D0B52B" d="M113.452,243.376c0,3.654,2.961,6.615,6.614,6.615h16.036c3.651,0,6.614-2.961,6.614-6.615l0,0
		c0-3.65-2.962-6.613-6.614-6.613h-16.036C116.413,236.763,113.452,239.726,113.452,243.376L113.452,243.376z"/>
	<path fill="#D0B52B" d="M184.513,171.012c0,1.329,1.079,2.407,2.405,2.407h29.469c1.328,0,2.404-1.079,2.404-2.407l0,0
		c0-1.326-1.076-2.405-2.404-2.405h-29.469C185.592,168.605,184.513,169.685,184.513,171.012L184.513,171.012z"/>
	<path fill="#D0B52B" d="M110.446,378.826c0,6.478,5.25,11.729,11.728,11.729h68.746c6.478,0,11.727-5.252,11.727-11.729l0,0
		c0-6.479-5.249-11.729-11.727-11.729h-68.746C115.695,367.102,110.446,372.35,110.446,378.826L110.446,378.826z"/>
	<path fill="#D0B52B" d="M101.724,337.995c0,5.979,4.844,10.826,10.823,10.826h13.231c5.979,0,10.826-4.854,10.826-10.826l0,0
		c0-5.979-4.847-10.823-10.826-10.823h-13.231C106.568,327.17,101.724,332.017,101.724,337.995L101.724,337.995z"/>
	<path fill="#D0B52B" d="M418.616,357.938c0,5.979,4.844,10.826,10.821,10.826h13.229c5.979,0,10.826-4.853,10.826-10.826l0,0
		c0-5.979-4.852-10.817-10.826-10.817h-13.229C423.46,347.112,418.616,351.959,418.616,357.938L418.616,357.938z"/>
	<path fill="#BA9E30" d="M378.641,47.75c0,15.982-12.955,28.935-28.936,28.935l0,0c-15.98,0-28.936-12.953-28.936-28.935l0,0
		c0-15.981,12.953-28.935,28.936-28.935l0,0C365.688,18.815,378.641,31.768,378.641,47.75L378.641,47.75z"/>
	<path fill="none" stroke="#BA9E30" stroke-miterlimit="10" d="M213.39,41.557c0,3.154,2.561,5.712,5.715,5.712h30.368
		c3.158,0,5.715-2.558,5.715-5.712l0,0c0-3.154-2.558-5.712-5.715-5.712h-30.368C215.949,35.843,213.39,38.399,213.39,41.557
		L213.39,41.557z"/>
	<path fill="#BA9E30" d="M320.77,28.604c0,3.155,2.562,5.712,5.711,5.712h30.371c3.148,0,5.713-2.558,5.713-5.712l0,0
		c0-3.156-2.559-5.715-5.713-5.715H326.48C323.326,22.89,320.77,25.448,320.77,28.604L320.77,28.604z"/>
	<path fill="#BA9E30" d="M294.563,50.438c0,3.595,2.918,6.515,6.521,6.515h7.412c3.6,0,6.52-2.919,6.52-6.515l0,0
		c0-3.598-2.92-6.517-6.52-6.517h-7.412C297.48,43.921,294.563,46.841,294.563,50.438L294.563,50.438z"/>
	<path fill="#EDCA37" d="M255.775,2.567c0,1.244,1.004,2.248,2.244,2.248h79.69c1.24,0,2.246-1.004,2.246-2.248l0,0
		c0-1.239-1.006-2.245-2.246-2.245h-79.69C256.779,0.323,255.775,1.33,255.775,2.567L255.775,2.567z"/>
	<path fill="#BA9E30" d="M303.582,70.979c0,3.149,2.559,5.705,5.711,5.705h44.51c3.154,0,5.709-2.556,5.709-5.705l0,0
		c0-3.152-2.555-5.708-5.709-5.708h-44.51C306.141,65.271,303.582,67.828,303.582,70.979L303.582,70.979z"/>
	<path fill="#EDCA37" d="M355.497,317.019c0,1.476,1.188,2.657,2.655,2.657h81.388c1.469,0,2.656-1.188,2.656-2.657l0,0
		c0-1.467-1.188-2.651-2.656-2.651h-81.388C356.686,314.363,355.497,315.553,355.497,317.019L355.497,317.019z"/>
	<path fill="#D0B52B" d="M109.357,206.538c0,0.861,0.698,1.56,1.56,1.56h97.593c0.861,0,1.56-0.699,1.56-1.56l0,0
		c0-0.861-0.699-1.561-1.56-1.561h-97.593C110.055,204.978,109.357,205.677,109.357,206.538L109.357,206.538z"/>
	<path fill="none" stroke="#D0B52B" stroke-width="2" stroke-miterlimit="10" d="M47.305,306.867c0,3.896,3.164,7.063,7.065,7.063
		h34.278c3.904,0,7.068-3.162,7.068-7.063l0,0c0-3.901-3.164-7.065-7.068-7.065H54.37C50.469,299.802,47.305,302.966,47.305,306.867
		L47.305,306.867z"/>
	<path fill="#BA9E30" d="M115.334,146.521c0,1.816,1.473,3.289,3.29,3.289h10.338c1.816,0,3.291-1.473,3.291-3.289l0,0
		c0-1.816-1.474-3.29-3.291-3.29h-10.338C116.808,143.232,115.334,144.705,115.334,146.521L115.334,146.521z"/>
	<path fill="#BA9E30" d="M8.959,154.466c0,0.967,0.784,1.75,1.749,1.75h49.837c0.965,0,1.749-0.783,1.749-1.75l0,0
		c0-0.968-0.784-1.75-1.749-1.75H10.708C9.743,152.714,8.959,153.498,8.959,154.466L8.959,154.466z"/>
	<path fill="#D0B52B" d="M139.096,343.908c0,1.771,1.435,3.208,3.206,3.208h92.011c1.77,0,3.206-1.438,3.206-3.208l0,0
		c0-1.771-1.436-3.208-3.206-3.208h-92.011C140.531,340.7,139.096,342.137,139.096,343.908L139.096,343.908z"/>
	<path fill="#EDCA37" d="M384.488,256.006c0,1.836,1.49,3.322,3.322,3.322h39.965c1.834,0,3.314-1.486,3.314-3.322l0,0
		c0-1.836-1.48-3.324-3.314-3.324h-39.965C385.979,252.682,384.488,254.17,384.488,256.006L384.488,256.006z"/>
	<path fill="#EDCA37" d="M440.764,55.348c0,3.666,2.977,6.636,6.643,6.636h12.188c3.666,0,6.643-2.97,6.643-6.636l0,0
		c0-3.664-2.977-6.633-6.643-6.633H447.4C443.734,48.714,440.764,51.685,440.764,55.348L440.764,55.348z"/>
	<path fill="#EDCA37" d="M116.58,162.591c0,1.769,1.436,3.206,3.205,3.206h46.143c1.771,0,3.208-1.436,3.208-3.206l0,0
		c0-1.769-1.436-3.205-3.208-3.205h-46.143C118.016,159.386,116.58,160.823,116.58,162.591L116.58,162.591z"/>
	<path fill="#EDCA37" d="M123.433,97.281c0,2.111,1.714,3.826,3.826,3.826h12.77c2.112,0,3.829-1.714,3.829-3.826l0,0
		c0-2.114-1.717-3.829-3.829-3.829h-12.77C125.147,93.453,123.433,95.167,123.433,97.281L123.433,97.281z"/>
	<path fill="#EDCA37" d="M15.023,184.692c0,0.757,0.612,1.37,1.37,1.37h36.258c0.757,0,1.371-0.613,1.371-1.37l0,0
		c0-0.758-0.613-1.371-1.371-1.371H16.393C15.635,183.322,15.023,183.934,15.023,184.692L15.023,184.692z"/>
	<path fill="#EDCA37" d="M159.454,219.374c0,2.575,2.085,4.661,4.661,4.661h35.408c2.575,0,4.663-2.085,4.663-4.661l0,0
		c0-2.575-2.087-4.66-4.663-4.66h-35.408C161.54,214.713,159.454,216.799,159.454,219.374L159.454,219.374z"/>
	<path fill="#EDCA37" d="M392.641,208.099c0,3.099,2.512,5.608,5.607,5.608h34.482c3.1,0,5.604-2.509,5.604-5.608l0,0
		c0-3.099-2.512-5.61-5.604-5.61h-34.482C395.152,202.489,392.641,205.001,392.641,208.099L392.641,208.099z"/>
	<path fill="#EDCA37" d="M357.559,119.394c0,1.663,1.354,3.009,3.008,3.009H416.2c1.653,0,3.007-1.346,3.007-3.009l0,0
		c0-1.659-1.354-3.006-3.007-3.006h-55.634C358.907,116.388,357.559,117.735,357.559,119.394L357.559,119.394z"/>
	<path fill="#FFFFFF" d="M34.522,398.838c0,5.736,4.648,10.383,10.385,10.383h36.966c5.734,0,10.383-4.646,10.383-10.383l0,0
		c0-5.734-4.646-10.385-10.383-10.385H44.907C39.17,388.454,34.522,393.104,34.522,398.838L34.522,398.838z"/>
	<path fill="#FFFFFF" d="M344.523,352.228c0,1.888,1.521,3.407,3.406,3.407h35.278c1.888,0,3.406-1.521,3.406-3.407l0,0
		c0-1.884-1.521-3.4-3.406-3.4H347.93C346.05,348.821,344.523,350.345,344.523,352.228L344.523,352.228z"/>
	<path fill="#FFFFFF" d="M322.128,191.259c0,1.993,1.615,3.608,3.608,3.608h48.511c1.994,0,3.61-1.615,3.61-3.608l0,0
		c0-1.99-1.616-3.607-3.61-3.607h-48.511C323.743,187.653,322.128,189.271,322.128,191.259L322.128,191.259z"/>
	<path fill="#FFFFFF" d="M346.684,84.416c0,6.062,4.912,10.972,10.971,10.972h19.748c6.063,0,10.979-4.91,10.979-10.972l0,0
		c0-6.061-4.909-10.971-10.979-10.971h-19.748C351.596,73.444,346.684,78.354,346.684,84.416L346.684,84.416z"/>
	<path fill="#FFFFFF" d="M439.466,13.852c0,1.661,1.344,3.007,3.006,3.007h22.055c1.654,0,3.006-1.346,3.006-3.007l0,0
		c0-1.661-1.352-3.006-3.006-3.006h-22.055C440.81,10.847,439.466,12.193,439.466,13.852L439.466,13.852z"/>
	<path fill="#FFFFFF" d="M441.668,157.58c0,3.542,2.873,6.416,6.416,6.416h10.826c3.541,0,6.414-2.874,6.414-6.416l0,0
		c0-3.542-2.871-6.413-6.414-6.413h-10.826C444.541,151.167,441.668,154.038,441.668,157.58L441.668,157.58z"/>
	<path fill="#FFFFFF" d="M21.105,34.431c0,3.489,2.831,6.319,6.32,6.319h32.981c3.489,0,6.319-2.83,6.319-6.319l0,0
		c0-3.49-2.83-6.319-6.319-6.319h-32.98C23.937,28.113,21.105,30.941,21.105,34.431L21.105,34.431z"/>
	<path fill="none" stroke="#1560AD" stroke-miterlimit="10" d="M5.038,96.773c0,3.774,3.057,6.833,6.833,6.833h35.663
		c3.773,0,6.833-3.06,6.833-6.833l0,0c0-3.772-3.06-6.832-6.833-6.832H11.87C8.095,89.941,5.038,93,5.038,96.773L5.038,96.773z"/>
	<path fill="#1560AD" d="M123.166,38.547c0,1.661,1.345,3.009,3.006,3.009h36.885c1.66,0,3.01-1.348,3.01-3.009l0,0
		c0-1.661-1.35-3.007-3.01-3.007h-36.885C124.513,35.539,123.166,36.886,123.166,38.547L123.166,38.547z"/>
	<path fill="#1560AD" d="M353.346,398.836c0,3.652,2.963,6.614,6.616,6.614h53.319c3.647,0,6.606-2.962,6.606-6.614l0,0
		c0-3.654-2.963-6.613-6.606-6.613h-53.319C356.309,392.221,353.346,395.182,353.346,398.836L353.346,398.836z"/>
	<path fill="none" stroke="#1560AD" stroke-miterlimit="10" d="M358.141,287.027c0,2.086,1.691,3.779,3.779,3.779h52.918
		c2.084,0,3.778-1.693,3.778-3.779l0,0c0-2.086-1.694-3.779-3.778-3.779H361.92C359.834,283.25,358.141,284.943,358.141,287.027
		L358.141,287.027z"/>
	<path fill="#1560AD" d="M7.543,12.211c0,4.086,3.312,7.398,7.398,7.398h8.783c4.085,0,7.398-3.313,7.398-7.398l0,0
		c0-4.082-3.313-7.396-7.398-7.396h-8.783C10.855,4.814,7.543,8.128,7.543,12.211L7.543,12.211z"/>
	<path fill="none" stroke="#1560AD" stroke-miterlimit="10" d="M316.963,223.282c0,5.314,4.309,9.623,9.623,9.623h11.424
		c5.314,0,9.623-4.309,9.623-9.623l0,0c0-5.31-4.309-9.621-9.623-9.621h-11.424C321.271,213.661,316.963,217.972,316.963,223.282
		L316.963,223.282z"/>
	<path fill="#1560AD" d="M27.824,249.99c0,2.326,1.884,4.211,4.209,4.211h42.698c2.326,0,4.209-1.885,4.209-4.211l0,0
		c0-2.324-1.884-4.209-4.209-4.209H32.033C29.707,245.781,27.824,247.667,27.824,249.99L27.824,249.99z"/>
</g>
</svg>
