<?xml version="1.0" encoding="utf-8"?>
<!-- Generator: Adobe Illustrator 16.0.0, SVG Export Plug-In . SVG Version: 6.00 Build 0)  -->
<!DOCTYPE svg PUBLIC "-//W3C//DTD SVG 1.1//EN" "http://www.w3.org/Graphics/SVG/1.1/DTD/svg11.dtd">
<svg version="1.1" id="Layer_1" xmlns="http://www.w3.org/2000/svg" xmlns:xlink="http://www.w3.org/1999/xlink" x="0px" y="0px"
	 width="480px" height="480px" viewBox="0 0 480 480" enable-background="new 0 0 480 480" xml:space="preserve">
<g>
	<g>
		<circle fill="#D0B52B" cx="272.781" cy="94.824" r="33.617"/>
		<g>
			<g>
				<path fill="#D0B52B" d="M235.905,108.222c-1.525-4.182-2.374-8.689-2.374-13.398c0-10.086,3.806-19.277,10.055-26.231
					c-5.048-3.901-11.376-6.226-18.252-6.226c-16.511,0-29.893,13.381-29.893,29.892c0,16.175,12.846,29.337,28.889,29.866
					l6.653-7.991L235.905,108.222z"/>
			</g>
		</g>
		<path fill="#D0B52B" d="M240.934,117.756c-0.842-1.164-1.615-2.376-2.328-3.632l-5.923,7.114l-14.339,17.222l4.226,3.853h47.2
			v-8.362C257.898,133.047,247.514,126.872,240.934,117.756z"/>
		<g>
			<g>
				<path fill="#D0B52B" d="M348.572,92.259c0-16.511-13.385-29.892-29.891-29.892c-6.471,0-12.453,2.058-17.342,5.547
					c6.623,7.029,10.691,16.492,10.691,26.91c0,5.007-0.957,9.783-2.668,14.184l4.428,5.317l6.479,7.783
					C336.041,121.281,348.572,108.232,348.572,92.259z"/>
			</g>
		</g>
		<path fill="#D0B52B" d="M311.463,121.269l-5.096-6.122c-0.682,1.121-1.418,2.202-2.199,3.245
			c-6.869,9.13-17.629,15.161-29.813,15.646v8.275h47.197l4.223-3.853L311.463,121.269z"/>
		<path fill="#C09F35" d="M232.146,121.887c-0.349,0.419,2.452,3.675,2.718,4.093c1.217,1.917,2.189,3.981,3.481,5.85
			c1.653,2.393,4.195,4.25,6.83,5.438c3.748,1.687,7.945,2.289,11.898,3.331c2.715,0.713,5.443,1.431,8.246,1.712h-42.75
			l-4.226-3.853c1.332-1.593,2.655-3.186,3.984-4.782c2.334-2.8,4.667-5.607,7.002-8.41
			C230.268,124.142,231.206,123.012,232.146,121.887z"/>
		<path fill="#C09F35" d="M311.977,121.887c0.348,0.419-2.449,3.675-2.719,4.093c-1.221,1.917-2.189,3.981-3.479,5.85
			c-1.66,2.393-4.201,4.25-6.834,5.438c-3.748,1.687-7.943,2.289-11.898,3.331c-2.711,0.713-5.441,1.431-8.244,1.712h42.75
			l4.223-3.853c-1.326-1.593-2.652-3.186-3.98-4.782c-2.334-2.8-4.668-5.607-7.002-8.41
			C313.857,124.142,312.916,123.012,311.977,121.887z"/>
		<path fill="#D0B52B" d="M223.593,145.997c0.007,0,97.211,0,97.211,0s-28.98,46.866-17.057,99.533c0,0,9.488,35.937,44.824,58.293
			c0,0-66.682,35.442-155.451,0c0.858,0.347,4.047-2.535,4.59-2.957c3.717-2.866,7.24-6.006,10.748-9.116
			c15.781-14.003,28.335-31.61,33.361-52.364c1.377-5.686,2.27-11.672,2.576-17.521c0.836-15.917-1.754-31.691-6.935-46.733
			c-1.685-4.893-3.668-9.676-5.923-14.334C230.694,159.046,225.157,145.997,223.593,145.997z"/>
		<g>
			<path fill="#C09F35" d="M303.748,245.53c-11.924-52.667,17.057-99.533,17.057-99.533s-1.879,0-5.105,0
				c0,0-26.02,46.866-15.316,99.533c0,0,8.516,35.937,40.238,58.293c0,0-26.988,15.98-68.842,15.753
				c46.684,0.252,76.793-15.753,76.793-15.753C313.236,281.467,303.748,245.53,303.748,245.53z"/>
			<path fill="#C09F35" d="M205.193,300.866c3.336-2.866,6.498-6.006,9.647-9.116c14.167-14.003,25.438-31.61,29.949-52.364
				c1.238-5.686,2.037-11.672,2.311-17.521c0.754-15.917-1.572-31.691-6.223-46.733c-1.515-4.893-3.297-9.676-5.319-14.334
				c-0.759-1.752-5.729-14.801-7.133-14.801c-3.052,0-4.829,0-4.832,0c1.563,0,7.101,13.049,7.945,14.801
				c2.255,4.658,4.238,9.441,5.923,14.334c5.181,15.042,7.771,30.816,6.935,46.733c-0.307,5.849-1.199,11.834-2.576,17.521
				c-5.026,20.753-17.58,38.361-33.361,52.364c-3.508,3.11-7.031,6.25-10.748,9.116c-0.543,0.422-3.731,3.304-4.59,2.957
				c28.729,11.471,55.135,15.513,77.725,15.738c-20.277-0.226-43.987-4.268-69.774-15.738
				C201.84,304.17,204.701,301.288,205.193,300.866z"/>
		</g>
		<path fill="#D0B52B" d="M363.623,347.278c0,53.92-41.715,95.662-92.777,95.662c-51.059,0-92.131-41.742-92.131-95.662
			c0-14.188,8.023-39.84,8.023-39.84s34.577,17.256,85.132,17.006c50.551-0.25,84.277-17.762,84.277-17.762
			S363.623,332.362,363.623,347.278z"/>
		<g>
			<g>
				<g>
					<path fill="#C09F35" d="M270.576,442.94c0.09,0,0.18-0.006,0.271-0.006c-0.1,0-0.197,0.006-0.297,0.006
						C270.561,442.94,270.568,442.94,270.576,442.94z"/>
				</g>
				<g>
					<path fill="#C09F35" d="M271.463,324.444c-0.205,0-0.41-0.005-0.617-0.005c0.199,0,0.393,0.005,0.592,0.005
						C271.447,324.444,271.453,324.444,271.463,324.444z"/>
				</g>
				<g>
					<path fill="#C09F35" d="M363.301,347.278c0-14.916-7.48-40.596-7.48-40.596s-4.285,2.221-12.066,5.089
						c1.826,8.248,5.143,24.701,5.143,35.507c0,53.804-35.068,95.479-78.049,95.656
						C321.764,442.758,363.301,401.082,363.301,347.278z"/>
				</g>
				<g>
					<path fill="#C09F35" d="M192.801,347.278c0-10.369,3.615-26.852,5.562-34.976c-7.69-2.742-11.948-4.864-11.948-4.864
						s-8.025,25.652-8.025,39.84c0,53.92,41.074,95.662,92.134,95.662c0.01,0,0.02,0,0.027,0
						C227.46,442.923,192.801,401.188,192.801,347.278z"/>
				</g>
			</g>
		</g>
		<path fill="#D0B52B" d="M247.275,443.934c0,0,23.188,11.262,47.861,0.994l31.799,23.349c0,0-43.885,25.506-109.304,0.829
			L247.275,443.934z"/>
		<g>
			<g>
				<g>
					<path fill="#C09F35" d="M316.141,460.414l-21.088-15.486c-24.678,10.268-47.863-0.994-47.863-0.994l-18.765,15.932
						C266.107,469.176,296.471,465.554,316.141,460.414z"/>
				</g>
			</g>
		</g>
		<g>
			<g>
				<g>
					<path fill="#A4852F" d="M312.305,457.521l-17.15-12.594c-24.674,10.268-47.861-0.994-47.861-0.994l-15.466,13.134
						C267.979,467.345,296.279,462.524,312.305,457.521z"/>
				</g>
			</g>
		</g>
		<g>
			<g>
				<path fill="#BA9E30" d="M195.502,92.298c0-16.509,13.383-29.892,29.893-29.892c5.804,0,11.211,1.67,15.795,4.533
					c-16.711,1.95-29.68,16.146-29.68,33.384c0,8.028,2.814,15.399,7.513,21.182C205.576,118.58,195.502,106.622,195.502,92.298z"/>
			</g>
		</g>
		<g>
			<g>
				<path fill="#BA9E30" d="M348.572,92.298c0-16.509-13.385-29.892-29.891-29.892c-5.809,0-11.213,1.67-15.799,4.533
					c16.711,1.95,29.682,16.146,29.682,33.384c0,8.028-2.816,15.399-7.516,21.182C338.496,118.58,348.572,106.622,348.572,92.298z"
					/>
			</g>
		</g>
		<path fill="none" d="M306.875,130.429c0.021,0,0.041,0,0.059,0"/>
		<path fill="none" d="M297.807,136.33c0.65-0.041,1.125-0.531,1.623-0.909c1.162-0.882,2.139-1.736,3.031-2.885
			c0.773-0.992,1.445-1.44,2.674-1.734"/>
		<path fill="#C09F35" d="M293.568,254.069c-0.291-1.282-0.451-1.833-0.461-1.771c-0.076,0.432,7.691,32.854,30.119,48.659
			c0,0-21.709,12.853-55.377,12.665c37.551,0.207,61.77-12.665,61.77-12.665C301.197,282.976,293.568,254.069,293.568,254.069z"/>
		<path fill="#C09F35" d="M343.852,319.576c-0.691-3.138-1.174-5.092-1.174-5.092s-28.455,17.505-71.117,17.763
			c0.029,0,0.057,0,0.084,0C304.207,332.087,329.77,324.767,343.852,319.576z"/>
	</g>
	<path fill="#BA9E30" d="M146.962,81.121c0,3.768,3.055,6.828,6.825,6.828h51.699c3.771,0,6.825-3.06,6.825-6.828l0,0
		c0-3.77-3.055-6.825-6.825-6.825h-51.699C150.018,74.295,146.962,77.351,146.962,81.121L146.962,81.121z"/>
	<path fill="#BA9E30" d="M138.843,53.26c0,2.713,2.199,4.913,4.912,4.913h17.837c2.713,0,4.912-2.199,4.912-4.913l0,0
		c0-2.712-2.199-4.912-4.912-4.912h-17.837C141.042,48.348,138.843,50.547,138.843,53.26L138.843,53.26z"/>
	<path fill="#D0B52B" d="M174.622,263.843c0,4.428,3.59,8.018,8.018,8.018h55.935c4.427,0,8.015-3.59,8.015-8.018l0,0
		c0-4.432-3.588-8.021-8.015-8.021H182.64C178.212,255.822,174.622,259.411,174.622,263.843L174.622,263.843z"/>
	<path fill="#D0B52B" d="M157.989,243.192c0,3.654,2.961,6.614,6.614,6.614h16.036c3.651,0,6.614-2.96,6.614-6.614l0,0
		c0-3.651-2.962-6.614-6.614-6.614h-16.036C160.95,236.578,157.989,239.541,157.989,243.192L157.989,243.192z"/>
	<path fill="#D0B52B" d="M212.312,170.827c0,1.329,1.079,2.407,2.405,2.407h29.469c1.328,0,2.404-1.079,2.404-2.407l0,0
		c0-1.326-1.076-2.405-2.404-2.405h-29.469C213.391,168.421,212.312,169.5,212.312,170.827L212.312,170.827z"/>
	<path fill="#D0B52B" d="M193.121,229.961c0,5.647,4.578,10.225,10.224,10.225h7.764c5.645,0,10.224-4.578,10.224-10.225l0,0
		c0-5.646-4.58-10.222-10.224-10.222h-7.764C197.699,219.74,193.121,224.315,193.121,229.961L193.121,229.961z"/>
	<path fill="#D0B52B" d="M126.315,380.309c0,6.476,5.25,11.728,11.728,11.728h68.746c6.478,0,11.727-5.252,11.727-11.728l0,0
		c0-6.477-5.249-11.725-11.727-11.725h-68.746C131.564,368.584,126.315,373.832,126.315,380.309L126.315,380.309z"/>
	<path fill="#D0B52B" d="M129.523,337.811c0,5.979,4.844,10.826,10.823,10.826h13.231c5.979,0,10.826-4.848,10.826-10.826l0,0
		c0-5.979-4.847-10.825-10.826-10.825h-13.231C134.367,326.985,129.523,331.832,129.523,337.811L129.523,337.811z"/>
	<path fill="#EDCA37" d="M420.439,40.565c0,19.848-16.088,35.935-35.934,35.935l0,0c-19.848,0-35.934-16.087-35.934-35.935l0,0
		c0-19.847,16.086-35.934,35.934-35.934l0,0C404.352,4.631,420.439,20.718,420.439,40.565L420.439,40.565z"/>
	<path fill="#EDCA37" d="M295.6,23.892c0,3.154,2.559,5.712,5.715,5.712h30.367c3.158,0,5.715-2.558,5.715-5.712l0,0
		c0-3.154-2.557-5.712-5.715-5.712h-30.367C298.158,18.179,295.6,20.737,295.6,23.892L295.6,23.892z"/>
	<path fill="#EDCA37" d="M338.449,13.669c0,3.155,2.557,5.712,5.711,5.712h30.371c3.154,0,5.713-2.558,5.713-5.712l0,0
		c0-3.156-2.559-5.715-5.713-5.715H344.16C341.006,7.955,338.449,10.513,338.449,13.669L338.449,13.669z"/>
	<path fill="#EDCA37" d="M322.361,50.254c0,3.595,2.918,6.515,6.518,6.515h7.412c3.6,0,6.518-2.919,6.518-6.515l0,0
		c0-3.598-2.918-6.517-6.518-6.517h-7.412C325.279,43.737,322.361,46.656,322.361,50.254L322.361,50.254z"/>
	<path fill="#EDCA37" d="M283.574,2.383c0,1.244,1.004,2.248,2.244,2.248h79.701c1.242,0,2.246-1.004,2.246-2.248l0,0
		c0-1.239-1.004-2.245-2.246-2.245h-79.701C284.578,0.138,283.574,1.145,283.574,2.383L283.574,2.383z"/>
	<path fill="#EDCA37" d="M331.381,70.794c0,3.149,2.559,5.705,5.711,5.705h44.51c3.154,0,5.709-2.556,5.709-5.705l0,0
		c0-3.152-2.555-5.708-5.709-5.708h-44.51C333.939,65.087,331.381,67.643,331.381,70.794L331.381,70.794z"/>
	<path fill="#EDCA37" d="M297.807,83.778c0,1.469,1.188,2.657,2.656,2.657h81.387c1.469,0,2.656-1.188,2.656-2.657l0,0
		c0-1.467-1.188-2.657-2.656-2.657h-81.387C298.994,81.121,297.807,82.311,297.807,83.778L297.807,83.778z"/>
	<path fill="#D0B52B" d="M119.698,204.305c0,1.993,1.615,3.608,3.608,3.608h110.955c1.991,0,3.608-1.615,3.608-3.608l0,0
		c0-1.991-1.617-3.608-3.608-3.608H123.306C121.313,200.697,119.698,202.314,119.698,204.305L119.698,204.305z"/>
	<path fill="none" stroke="#D0B52B" stroke-width="2" stroke-miterlimit="10" d="M122.104,286.845c0,3.901,3.164,7.065,7.065,7.065
		h34.278c3.904,0,7.068-3.164,7.068-7.065l0,0c0-3.901-3.164-7.065-7.068-7.065h-34.278
		C125.268,279.779,122.104,282.943,122.104,286.845L122.104,286.845z"/>
	<path fill="#BA9E30" d="M165.401,131.99c0,4.068,3.3,7.366,7.368,7.366h23.152c4.068,0,7.369-3.297,7.369-7.366l0,0
		c0-4.069-3.3-7.368-7.369-7.368H172.77C168.701,124.622,165.401,127.921,165.401,131.99L165.401,131.99z"/>
	<path fill="#BA9E30" d="M141.046,112.453c0,1.489,1.206,2.693,2.691,2.693h76.706c1.485,0,2.691-1.205,2.691-2.693l0,0
		c0-1.489-1.206-2.694-2.691-2.694h-76.706C142.252,109.759,141.046,110.964,141.046,112.453L141.046,112.453z"/>
	<path fill="#D0B52B" d="M102.862,316.834c0,1.772,1.435,3.208,3.206,3.208h92.011c1.77,0,3.206-1.436,3.206-3.208l0,0
		c0-1.772-1.436-3.208-3.206-3.208h-92.011C104.297,313.626,102.862,315.062,102.862,316.834L102.862,316.834z"/>
	<path fill="#EDCA37" d="M261.621,98.148c0,1.835,1.49,3.322,3.322,3.322h39.965c1.834,0,3.32-1.486,3.32-3.322l0,0
		c0-1.837-1.486-3.324-3.32-3.324h-39.965C263.111,94.824,261.621,96.311,261.621,98.148L261.621,98.148z"/>
	<path fill="#EDCA37" d="M260.514,56.887c0,3.666,2.971,6.636,6.637,6.636h12.189c3.666,0,6.639-2.97,6.639-6.636l0,0
		c0-3.664-2.973-6.633-6.639-6.633H267.15C263.484,50.254,260.514,53.224,260.514,56.887L260.514,56.887z"/>
	<path fill="#EDCA37" d="M144.053,153.338c0,2.24,1.818,4.059,4.059,4.059h58.434c2.243,0,4.062-1.818,4.062-4.059l0,0
		c0-2.24-1.819-4.059-4.062-4.059h-58.434C145.872,149.28,144.053,151.098,144.053,153.338L144.053,153.338z"/>
	<path fill="#EDCA37" d="M151.232,97.096c0,2.111,1.714,3.826,3.826,3.826h12.77c2.112,0,3.829-1.714,3.829-3.826l0,0
		c0-2.114-1.717-3.829-3.829-3.829h-12.77C152.946,93.268,151.232,94.982,151.232,97.096L151.232,97.096z"/>
	<path fill="#EDCA37" d="M59.56,187.617c0,1.911,1.546,3.458,3.457,3.458h91.513c1.911,0,3.459-1.547,3.459-3.458l0,0
		c0-1.911-1.549-3.458-3.459-3.458H63.017C61.106,184.159,59.56,185.706,59.56,187.617L59.56,187.617z"/>
	<path fill="#EDCA37" d="M187.253,219.189c0,2.575,2.085,4.661,4.661,4.661h35.408c2.575,0,4.663-2.085,4.663-4.661l0,0
		c0-2.575-2.087-4.66-4.663-4.66h-35.408C189.339,214.529,187.253,216.614,187.253,219.189L187.253,219.189z"/>
	<path fill="#EDCA37" d="M276.656,124.821c0,3.099,2.512,5.608,5.611,5.608h34.484c3.098,0,5.609-2.509,5.609-5.608l0,0
		c0-3.099-2.512-5.61-5.609-5.61h-34.484C279.168,119.21,276.656,121.722,276.656,124.821L276.656,124.821z"/>
	<path fill="#EDCA37" d="M165.401,62.078c0,1.663,1.348,3.009,3.009,3.009h55.626c1.661,0,3.007-1.346,3.007-3.009l0,0
		c0-1.659-1.346-3.006-3.007-3.006H168.41C166.75,59.072,165.401,60.419,165.401,62.078L165.401,62.078z"/>
	<path fill="#FFFFFF" d="M198.077,16.676c0,5.737,4.648,10.384,10.385,10.384h36.966c5.734,0,10.383-4.647,10.383-10.384l0,0
		c0-5.734-4.648-10.384-10.383-10.384h-36.966C202.725,6.292,198.077,10.942,198.077,16.676L198.077,16.676z"/>
	<path fill="#FFFFFF" d="M273.049,65.188c0,1.882,1.525,3.407,3.406,3.407h35.283c1.883,0,3.406-1.524,3.406-3.407l0,0
		c0-1.884-1.523-3.406-3.406-3.406h-35.283C274.574,61.782,273.049,63.305,273.049,65.188L273.049,65.188z"/>
	<path fill="#FFFFFF" d="M292.26,145.17c0,1.993,1.615,3.608,3.609,3.608h48.51c1.994,0,3.611-1.615,3.611-3.608l0,0
		c0-1.99-1.617-3.607-3.611-3.607h-48.51C293.875,141.563,292.26,143.18,292.26,145.17L292.26,145.17z"/>
	<path fill="#FFFFFF" d="M374.482,84.231c0,6.062,4.912,10.972,10.971,10.972h19.748c6.063,0,10.973-4.91,10.973-10.972l0,0
		c0-6.061-4.91-10.971-10.973-10.971h-19.748C379.395,73.26,374.482,78.17,374.482,84.231L374.482,84.231z"/>
	<path fill="#FFFFFF" d="M298.709,9.86c0,1.661,1.344,3.007,3.006,3.007h22.049c1.66,0,3.006-1.346,3.006-3.007l0,0
		c0-1.661-1.346-3.006-3.006-3.006h-22.049C300.053,6.854,298.709,8.2,298.709,9.86L298.709,9.86z"/>
	<path fill="#FFFFFF" d="M202.89,90.644c0,3.542,2.873,6.416,6.416,6.416h10.825c3.542,0,6.414-2.874,6.414-6.416l0,0
		c0-3.542-2.871-6.413-6.414-6.413h-10.825C205.763,84.231,202.89,87.102,202.89,90.644L202.89,90.644z"/>
	<path fill="#FFFFFF" d="M116.29,141.563c0,1.549,1.256,2.808,2.808,2.808h42.095c1.552,0,2.808-1.258,2.808-2.808l0,0
		c0-1.549-1.255-2.805-2.808-2.805h-42.095C117.545,138.757,116.29,140.013,116.29,141.563L116.29,141.563z"/>
	<path fill="#FFFFFF" d="M77.802,37.925c0,4.539,3.683,8.219,8.221,8.219h42.898c4.538,0,8.219-3.68,8.219-8.219l0,0
		c0-4.539-3.681-8.219-8.219-8.219H86.023C81.485,29.706,77.802,33.386,77.802,37.925L77.802,37.925z"/>
	<path fill="none" stroke="#1560AD" stroke-miterlimit="10" d="M88.061,85.235c0,3.829,3.101,6.932,6.932,6.932h36.184
		c3.828,0,6.932-3.104,6.932-6.932l0,0c0-3.828-3.104-6.932-6.932-6.932H94.992C91.162,78.303,88.061,81.407,88.061,85.235
		L88.061,85.235z"/>
	<path fill="#1560AD" d="M225.341,48.348c0,1.661,1.345,3.009,3.006,3.009h36.885c1.66,0,3.01-1.348,3.01-3.009l0,0
		c0-1.661-1.35-3.007-3.01-3.007h-36.885C226.687,45.341,225.341,46.687,225.341,48.348L225.341,48.348z"/>
	<path fill="#1560AD" d="M281.469,185.061c0,3.652,2.963,6.614,6.617,6.614h53.32c3.652,0,6.615-2.962,6.615-6.614l0,0
		c0-3.654-2.963-6.614-6.615-6.614h-53.32C284.432,178.447,281.469,181.407,281.469,185.061L281.469,185.061z"/>
	<path fill="none" stroke="#1560AD" stroke-miterlimit="10" d="M175.625,186.564c0,1.493,1.212,2.706,2.706,2.706h37.888
		c1.493,0,2.706-1.213,2.706-2.706l0,0c0-1.494-1.213-2.706-2.706-2.706h-37.888C176.838,183.859,175.625,185.071,175.625,186.564
		L175.625,186.564z"/>
	<path fill="#1560AD" d="M144.955,23.291c0,5.314,4.308,9.623,9.623,9.623h11.424c5.314,0,9.623-4.309,9.623-9.623l0,0
		c0-5.31-4.309-9.621-9.623-9.621h-11.424C149.263,13.669,144.955,17.98,144.955,23.291L144.955,23.291z"/>
	<path fill="none" stroke="#1560AD" stroke-miterlimit="10" d="M344.762,223.097c0,5.314,4.309,9.623,9.623,9.623h11.424
		c5.314,0,9.623-4.309,9.623-9.623l0,0c0-5.31-4.309-9.621-9.623-9.621h-11.424C349.07,213.476,344.762,217.787,344.762,223.097
		L344.762,223.097z"/>
	<path fill="#1560AD" d="M108.873,269.254c0,2.326,1.884,4.21,4.209,4.21h42.698c2.326,0,4.209-1.884,4.209-4.21l0,0
		c0-2.325-1.884-4.209-4.209-4.209h-42.698C110.756,265.045,108.873,266.929,108.873,269.254L108.873,269.254z"/>
</g>
</svg>
