<?xml version="1.0" encoding="utf-8"?>
<!-- Generator: Adobe Illustrator 16.0.0, SVG Export Plug-In . SVG Version: 6.00 Build 0)  -->
<!DOCTYPE svg PUBLIC "-//W3C//DTD SVG 1.1//EN" "http://www.w3.org/Graphics/SVG/1.1/DTD/svg11.dtd">
<svg version="1.1" id="Layer_1" xmlns="http://www.w3.org/2000/svg" xmlns:xlink="http://www.w3.org/1999/xlink" x="0px" y="0px"
	 width="20px" height="20px" viewBox="90 90 20 20" enable-background="new 90 90 20 20" xml:space="preserve">
<g>
	<circle fill="#F0F0F0" cx="100" cy="100" r="10"/>
	<g>
		<path fill="#D80027" d="M99.565,100H110c0-0.902-0.12-1.777-0.345-2.608h-10.09V100z"/>
		<path fill="#D80027" d="M99.565,94.782h8.967c-0.612-0.999-1.395-1.882-2.308-2.608h-6.659V94.782z"/>
		<path fill="#D80027" d="M100,110c2.354,0,4.517-0.813,6.225-2.174H93.775C95.483,109.187,97.646,110,100,110z"/>
		<path fill="#D80027" d="M91.468,105.218h17.064c0.491-0.803,0.873-1.679,1.123-2.609H90.345
			C90.596,103.539,90.977,104.415,91.468,105.218z"/>
	</g>
	<path fill="#0052B4" d="M94.632,91.562h0.912l-0.849,0.616l0.324,0.996l-0.848-0.615l-0.848,0.615l0.279-0.86
		c-0.746,0.621-1.4,1.35-1.939,2.161h0.292l-0.539,0.393c-0.084,0.14-0.165,0.282-0.242,0.427l0.258,0.793l-0.48-0.35
		c-0.12,0.254-0.229,0.513-0.327,0.776l0.284,0.874h1.048l-0.848,0.616L91.433,99l-0.848-0.616l-0.508,0.369
		C90.026,99.162,90,99.578,90,100h10c0-5.522,0-6.174,0-10C98.024,90,96.183,90.573,94.632,91.562z M95.02,99l-0.848-0.616
		L93.324,99l0.324-0.996l-0.848-0.616h1.048l0.323-0.996l0.324,0.996h1.048l-0.849,0.616L95.02,99z M94.695,95.091l0.324,0.996
		l-0.848-0.616l-0.848,0.616l0.324-0.996l-0.848-0.616h1.048l0.323-0.996l0.324,0.996h1.047L94.695,95.091z M98.606,99l-0.848-0.616
		L96.911,99l0.324-0.996l-0.848-0.616h1.048l0.323-0.996l0.324,0.996h1.048l-0.848,0.616L98.606,99z M98.283,95.091l0.323,0.996
		l-0.848-0.616l-0.848,0.616l0.324-0.996l-0.848-0.616h1.048l0.323-0.996l0.324,0.996h1.048L98.283,95.091z M98.283,92.178
		l0.323,0.996l-0.848-0.615l-0.848,0.615l0.324-0.996l-0.848-0.616h1.048l0.323-0.996l0.324,0.996h1.048L98.283,92.178z"/>
</g>
</svg>
