<?xml version="1.0" encoding="utf-8"?>
<!-- Generator: Adobe Illustrator 16.0.0, SVG Export Plug-In . SVG Version: 6.00 Build 0)  -->
<!DOCTYPE svg PUBLIC "-//W3C//DTD SVG 1.1//EN" "http://www.w3.org/Graphics/SVG/1.1/DTD/svg11.dtd">
<svg version="1.1" id="Layer_1" xmlns="http://www.w3.org/2000/svg" xmlns:xlink="http://www.w3.org/1999/xlink" x="0px" y="0px"
	 width="20px" height="20px" viewBox="90 90 20 20" enable-background="new 90 90 20 20" xml:space="preserve">
<g>
	<g>
		<g>
			<defs>
				<circle id="SVGID_1_" cx="100" cy="100" r="10"/>
			</defs>
			<clipPath id="SVGID_2_">
				<use xlink:href="#SVGID_1_"  overflow="visible"/>
			</clipPath>
			<g clip-path="url(#SVGID_2_)">
				<path fill="#C8414B" d="M105.625,90h-11.25C91.959,90,90,91.959,90,94.375v11.25c0,2.416,1.959,4.375,4.375,4.375h11.25
					c2.416,0,4.375-1.959,4.375-4.375v-11.25C110,91.959,108.041,90,105.625,90z"/>
				<rect x="90" y="94.165" fill="#FFD250" width="20" height="11.67"/>
				<g>
					<path fill="#C8414B" d="M102.853,100.016l0.322-1.314c0.03-0.121-0.072-0.236-0.209-0.236h-0.227
						c-0.137,0-0.239,0.115-0.209,0.236L102.853,100.016z"/>
					<rect x="102.472" y="99.326" fill="#F5F5F5" width="0.761" height="2.93"/>
					<rect x="102.282" y="98.982" fill="#FAB446" width="1.141" height="0.344"/>
					<g>
						<rect x="101.521" y="100.016" fill="#C8414B" width="1.901" height="0.345"/>
						<polygon fill="#C8414B" points="103.423,101.395 102.282,101.05 102.282,100.705 103.423,101.05 						"/>
						<path fill="#C8414B" d="M97.147,100.016l0.323-1.314c0.029-0.121-0.072-0.236-0.209-0.236h-0.228
							c-0.137,0-0.238,0.115-0.209,0.236L97.147,100.016z"/>
					</g>
					<path fill="#F5F5F5" d="M98.479,98.982c-0.21,0-0.38,0.154-0.38,0.345v2.24c0,0.419,0.431,1.206,1.901,1.206
						s1.901-0.787,1.901-1.206v-2.24c0-0.19-0.17-0.345-0.38-0.345H98.479L98.479,98.982z"/>
					<g>
						<path fill="#C8414B" d="M100,100.705h-1.901v-1.361c0-0.199,0.162-0.361,0.362-0.361H100V100.705L100,100.705z"/>
						<path fill="#C8414B" d="M100,100.705h1.901v0.818c0,0.5-0.405,0.905-0.905,0.905h-0.091c-0.5,0-0.905-0.405-0.905-0.905
							V100.705L100,100.705z"/>
					</g>
					<path fill="#FAB446" d="M98.099,100.705H100v0.818c0,0.5-0.405,0.905-0.905,0.905h-0.091c-0.5,0-0.905-0.405-0.905-0.905
						V100.705L98.099,100.705z"/>
					<g>
						<path fill="#C8414B" d="M99.62,102.253v-1.548h-0.381v1.706C99.381,102.386,99.509,102.328,99.62,102.253z"/>
						<path fill="#C8414B" d="M98.859,102.411v-1.706h-0.381v1.548C98.59,102.328,98.718,102.386,98.859,102.411z"/>
					</g>
					<rect x="98.479" y="100.016" fill="#FFB441" width="1.141" height="0.345"/>
					<g>
						<rect x="98.479" y="99.326" fill="#FAB446" width="1.141" height="0.345"/>
						<rect x="98.669" y="99.531" fill="#FAB446" width="0.761" height="0.625"/>
					</g>
					<rect x="96.768" y="99.326" fill="#F5F5F5" width="0.761" height="2.93"/>
					<g>
						<rect x="96.577" y="102.084" fill="#FAB446" width="1.141" height="0.345"/>
						<rect x="96.577" y="98.982" fill="#FAB446" width="1.141" height="0.344"/>
					</g>
					<rect x="96.387" y="102.429" fill="#5064AA" width="1.521" height="0.345"/>
					<rect x="102.472" y="102.084" fill="#FAB446" width="1.142" height="0.345"/>
					<rect x="102.092" y="102.429" fill="#5064AA" width="1.521" height="0.345"/>
					<rect x="98.859" y="98.638" fill="#FAB446" width="2.281" height="0.345"/>
					<rect x="99.81" y="97.604" fill="#FFB441" width="0.381" height="1.034"/>
					<g>
						<path fill="#F5F5F5" d="M99.62,98.12c-0.315,0-0.571-0.231-0.571-0.517s0.256-0.518,0.571-0.518
							c0.314,0,0.57,0.232,0.57,0.518S99.935,98.12,99.62,98.12z M99.62,97.431c-0.105,0-0.19,0.077-0.19,0.173
							c0,0.095,0.085,0.172,0.19,0.172c0.104,0,0.189-0.077,0.189-0.172C99.81,97.508,99.725,97.431,99.62,97.431z"/>
						<path fill="#F5F5F5" d="M100.381,98.12c-0.315,0-0.571-0.231-0.571-0.517s0.256-0.518,0.571-0.518
							c0.314,0,0.57,0.232,0.57,0.518S100.695,98.12,100.381,98.12z M100.381,97.431c-0.105,0-0.19,0.077-0.19,0.173
							c0,0.095,0.085,0.172,0.19,0.172c0.104,0,0.189-0.077,0.189-0.172C100.57,97.508,100.485,97.431,100.381,97.431z"/>
						<path fill="#F5F5F5" d="M101.141,98.465c-0.314,0-0.57-0.231-0.57-0.517s0.256-0.517,0.57-0.517s0.571,0.231,0.571,0.517
							S101.455,98.465,101.141,98.465z M101.141,97.775c-0.104,0-0.189,0.077-0.189,0.173c0,0.095,0.085,0.172,0.189,0.172
							c0.105,0,0.19-0.077,0.19-0.172C101.331,97.853,101.246,97.775,101.141,97.775z"/>
						<path fill="#F5F5F5" d="M98.859,98.465c-0.314,0-0.57-0.231-0.57-0.517s0.256-0.517,0.57-0.517s0.57,0.231,0.57,0.517
							S99.174,98.465,98.859,98.465z M98.859,97.775c-0.105,0-0.19,0.077-0.19,0.173c0,0.095,0.085,0.172,0.19,0.172
							c0.104,0,0.189-0.077,0.189-0.172C99.049,97.853,98.964,97.775,98.859,97.775z"/>
					</g>
					<path fill="#FAB446" d="M101.141,101.395v0.173c0,0.095-0.085,0.172-0.189,0.172c-0.105,0-0.19-0.077-0.19-0.172v-0.173
						H101.141 M101.521,101.05h-1.141v0.518c0,0.285,0.256,0.517,0.57,0.517s0.57-0.231,0.57-0.517V101.05L101.521,101.05z"/>
					<path fill="#FFA0D2" d="M100.969,100.36h-0.036c-0.2,0-0.362-0.162-0.362-0.361v-0.311c0-0.2,0.162-0.362,0.362-0.362h0.036
						c0.2,0,0.362,0.162,0.362,0.362v0.311C101.331,100.198,101.169,100.36,100.969,100.36z"/>
					<ellipse fill="#5064AA" cx="100" cy="100.706" rx="0.57" ry="0.517"/>
					<rect x="99.81" y="96.914" fill="#FAB446" width="0.381" height="1.034"/>
					<path fill="#C8414B" d="M98.859,98.638l-0.381-0.345l0.223-0.202c0.345-0.313,0.812-0.487,1.299-0.487l0,0
						c0.487,0,0.954,0.175,1.299,0.487l0.223,0.202l-0.381,0.345H98.859z"/>
					<g>
						<ellipse fill="#FFD250" cx="100" cy="98.292" rx="0.19" ry="0.172"/>
						<ellipse fill="#FFD250" cx="99.239" cy="98.292" rx="0.19" ry="0.172"/>
						<ellipse fill="#FFD250" cx="100.761" cy="98.292" rx="0.19" ry="0.172"/>
					</g>
					<g>
						<rect x="96.577" y="100.016" fill="#C8414B" width="1.901" height="0.345"/>
						<polygon fill="#C8414B" points="96.577,101.395 97.718,101.05 97.718,100.705 96.577,101.05 						"/>
					</g>
				</g>
			</g>
		</g>
	</g>
</g>
</svg>
