<?xml version="1.0" encoding="utf-8"?>
<!-- Generator: Adobe Illustrator 16.0.0, SVG Export Plug-In . SVG Version: 6.00 Build 0)  -->
<!DOCTYPE svg PUBLIC "-//W3C//DTD SVG 1.1//EN" "http://www.w3.org/Graphics/SVG/1.1/DTD/svg11.dtd">
<svg version="1.1" id="Layer_1" xmlns="http://www.w3.org/2000/svg" xmlns:xlink="http://www.w3.org/1999/xlink" x="0px" y="0px"
	 width="480px" height="480px" viewBox="0 0 480 480" enable-background="new 0 0 480 480" xml:space="preserve">
<g>
	<path fill="#FFE500" d="M459.081,105.53c0,55.525-45.011,100.532-100.532,100.532c-55.518,0-100.529-45.007-100.529-100.532
		C258.02,50.009,303.027,5,358.549,5C414.071,5,459.081,50.009,459.081,105.53z"/>
	<rect y="455.896" fill="#CC7428" width="480" height="24.104"/>
	<g>
		<g>
			<rect x="194.595" y="100.799" fill="#38574B" width="45.405" height="73.939"/>
			<rect x="161.888" y="436.164" fill="#436455" width="78.11" height="20.222"/>
			<rect x="161.888" y="415.948" fill="#527564" width="78.11" height="20.216"/>
			<rect x="161.888" y="395.724" fill="#436455" width="78.11" height="20.229"/>
			<rect x="161.888" y="375.507" fill="#527564" width="78.11" height="20.217"/>
			<rect x="161.888" y="355.287" fill="#436455" width="78.11" height="20.22"/>
			<rect x="161.888" y="335.066" fill="#527564" width="78.11" height="20.222"/>
			<rect x="161.888" y="314.845" fill="#436455" width="78.11" height="20.229"/>
			<rect x="161.888" y="294.624" fill="#527564" width="78.11" height="20.223"/>
			<rect x="161.888" y="274.402" fill="#436455" width="78.11" height="20.222"/>
			<rect x="161.888" y="254.186" fill="#527564" width="78.11" height="20.219"/>
			<rect x="161.888" y="233.963" fill="#436455" width="78.11" height="20.223"/>
			<rect x="161.888" y="213.744" fill="#527564" width="78.11" height="20.219"/>
			<rect x="175.28" y="193.525" fill="#436455" width="64.72" height="20.219"/>
			<rect x="175.28" y="173.3" fill="#527564" width="64.72" height="20.226"/>
			<polygon fill="#2C493E" points="203.915,173.3 170.265,173.3 145.537,240.727 199.861,240.727 			"/>
			<polygon fill="#38574B" points="197.431,228.297 131.751,228.297 100.534,314.845 183.645,311.021 			"/>
			<polygon fill="#436455" points="184.323,304.646 86.748,304.646 56.479,386.256 174.86,386.256 			"/>
			<polygon fill="#527564" points="166.214,456.384 18.637,456.384 43.504,380.513 174.86,380.513 			"/>
			<polygon fill="#5F8473" points="219.19,173.3 196.485,173.3 149.455,456.384 184.323,456.384 			"/>
			<rect x="188.104" y="116.398" fill="#2C493E" width="51.895" height="8.607"/>
			<rect x="223.65" y="138.156" fill="#213C31" width="16.348" height="35.143"/>
			<rect x="239.998" y="100.799" fill="#2C493E" width="45.412" height="73.939"/>
			<rect x="239.998" y="436.164" fill="#38574B" width="78.117" height="20.222"/>
			<rect x="239.998" y="415.948" fill="#436455" width="78.117" height="20.216"/>
			<rect x="239.998" y="395.724" fill="#38574B" width="78.117" height="20.229"/>
			<rect x="239.998" y="375.507" fill="#436455" width="78.117" height="20.217"/>
			<rect x="239.998" y="355.287" fill="#38574B" width="78.117" height="20.22"/>
			<rect x="239.998" y="335.066" fill="#436455" width="78.117" height="20.222"/>
			<rect x="239.998" y="314.845" fill="#38574B" width="78.117" height="20.229"/>
			<rect x="239.998" y="294.624" fill="#436455" width="78.117" height="20.223"/>
			<rect x="239.998" y="274.402" fill="#38574B" width="78.117" height="20.222"/>
			<rect x="239.998" y="254.186" fill="#436455" width="78.117" height="20.219"/>
			<rect x="239.998" y="233.963" fill="#38574B" width="78.117" height="20.223"/>
			<rect x="239.998" y="213.744" fill="#436455" width="78.117" height="20.219"/>
			<rect x="239.998" y="193.525" fill="#38574B" width="64.723" height="20.219"/>
			<rect x="239.998" y="173.3" fill="#436455" width="64.723" height="20.226"/>
			<polygon fill="#223E34" points="276.084,173.3 309.732,173.3 334.465,240.727 280.137,240.727 			"/>
			<polygon fill="#2C493E" points="282.572,228.297 348.248,228.297 379.463,314.845 296.354,311.021 			"/>
			<polygon fill="#38574B" points="295.678,304.646 393.25,304.646 423.523,386.256 305.141,386.256 			"/>
			<polygon fill="#436455" points="313.787,456.384 461.363,456.384 436.498,380.513 305.141,380.513 			"/>
			<polygon fill="#567C6A" points="260.814,173.3 283.518,173.3 330.543,456.384 295.678,456.384 			"/>
			<rect x="239.998" y="116.398" fill="#223E34" width="51.898" height="8.607"/>
			<rect x="239.998" y="138.156" fill="#18332A" width="16.35" height="35.143"/>
		</g>
	</g>
	<path fill="#FFE500" d="M240,37.736c0,8.015,6.5,14.516,14.512,14.516H364.59c8.014,0,14.508-6.5,14.508-14.516l0,0
		c0-8.012-6.494-14.508-14.508-14.508H254.512C246.498,23.228,240,29.726,240,37.736L240,37.736z"/>
	<path fill="#FFE500" d="M301.758,199.271c0,3.507,3.258,6.349,7.27,6.349h55.162c4.014,0,7.271-2.842,7.271-6.349l0,0
		c0-3.506-3.257-6.347-7.271-6.347h-55.16C305.014,192.924,301.758,195.765,301.758,199.271L301.758,199.271z"/>
	<path fill="#FFE500" d="M293.193,179.67c0,1.886,1.521,3.413,3.408,3.413h73.444c1.89,0,3.408-1.526,3.408-3.413l0,0
		c0-1.882-1.522-3.412-3.408-3.412h-73.444C294.717,176.26,293.193,177.788,293.193,179.67L293.193,179.67z"/>
	<path fill="#FFE500" d="M273.813,151.843c0,1.157,0.938,2.094,2.103,2.094h45.063c1.154,0,2.092-0.937,2.092-2.094l0,0
		c0-1.157-0.938-2.093-2.092-2.093H275.91C274.752,149.75,273.813,150.687,273.813,151.843L273.813,151.843z"/>
	<path fill="#FFE500" d="M277.32,13.738c0,2.226,1.803,4.028,4.029,4.028h86.715c2.225,0,4.021-1.801,4.021-4.028l0,0
		c0-2.223-1.801-4.023-4.021-4.023H281.35C279.124,9.714,277.32,11.517,277.32,13.738L277.32,13.738z"/>
	<path fill="none" stroke="#FFE500" stroke-miterlimit="10" d="M81.187,37.305c0,5.219-4.232,9.45-9.449,9.45H28.402
		c-5.218,0-9.449-4.23-9.449-9.45l0,0c0-5.219,4.231-9.448,9.449-9.448h43.337C76.955,27.857,81.187,32.086,81.187,37.305
		L81.187,37.305z"/>
	<path fill="none" stroke="#FFFFFF" stroke-miterlimit="10" d="M455.401,255.592c0,7.08-5.742,12.817-12.822,12.817h-58.797
		c-7.08,0-12.816-5.737-12.816-12.817l0,0c0-7.08,5.736-12.82,12.816-12.82h58.797C449.659,242.771,455.401,248.512,455.401,255.592
		L455.401,255.592z"/>
	<path fill="#FFFFFF" d="M460.823,29.868c0,4.346-3.523,7.872-7.873,7.872h-36.104c-4.346,0-7.854-3.527-7.854-7.872l0,0
		c0-4.347,3.521-7.874,7.854-7.874h36.104C457.3,21.994,460.823,25.522,460.823,29.868L460.823,29.868z"/>
	<path fill="#FFFFFF" d="M467.536,186.372c0,6.71-5.438,12.154-12.151,12.154H399.65c-6.715,0-12.151-5.443-12.151-12.154l0,0
		c0-6.71,5.438-12.154,12.151-12.154h55.729C462.098,174.218,467.536,179.661,467.536,186.372L467.536,186.372z"/>
	<path fill="#2C493E" d="M69.53,208.21c0,6.966,5.649,12.621,12.618,12.621h81.479c6.969,0,12.62-5.655,12.62-12.621l0,0
		c0-6.97-5.648-12.619-12.62-12.619H82.148C75.179,195.591,69.53,201.241,69.53,208.21L69.53,208.21z"/>
	<path fill="#38574B" d="M69.53,273.4c0,6.967,5.649,12.619,12.618,12.619h81.479c6.969,0,12.62-5.649,12.62-12.619l0,0
		c0-6.969-5.648-12.621-12.62-12.621H82.148C75.179,260.779,69.53,266.432,69.53,273.4L69.53,273.4z"/>
	<path fill="#436455" d="M35.309,314.442c0,2.169,1.759,3.924,3.93,3.924h69.67c2.163,0,3.922-1.756,3.922-3.924l0,0
		c0-2.183-1.757-3.938-3.922-3.938h-69.67C37.067,310.513,35.309,312.271,35.309,314.442L35.309,314.442z"/>
	<path fill="#527564" d="M8.815,419.938c0,10.579,8.573,19.151,19.149,19.151h153.051c10.576,0,19.15-8.575,19.15-19.151l0,0
		c0-10.563-8.574-19.145-19.15-19.145H27.964C17.387,400.794,8.815,409.364,8.815,419.938L8.815,419.938z"/>
	<path fill="#38574B" d="M38.745,242.057c0,5.021,4.071,9.094,9.091,9.094H89.02c5.02,0,9.095-4.063,9.095-9.094l0,0
		c0-5.021-4.076-9.094-9.095-9.094H47.835C42.814,232.963,38.745,237.034,38.745,242.057L38.745,242.057z"/>
	<path fill="#527564" d="M4.399,377.567c0,4.234,3.44,7.688,7.687,7.688h14.556c4.244,0,7.684-3.443,7.684-7.688l0,0
		c0-4.241-3.44-7.688-7.684-7.688H12.087C7.839,369.882,4.399,373.325,4.399,377.567L4.399,377.567z"/>
	<path fill="#436455" d="M36.784,345.961c0,3.866,3.129,6.994,6.991,6.994h41.704c3.861,0,6.993-3.131,6.993-6.994l0,0
		c0-3.861-3.134-6.989-6.993-6.989H43.773C39.913,338.973,36.784,342.103,36.784,345.961L36.784,345.961z"/>
	<path fill="#436455" d="M12.739,328.737c0,2.642,2.139,4.787,4.781,4.787h3.682c2.642,0,4.783-2.146,4.783-4.787l0,0
		c0-2.646-2.141-4.781-4.783-4.781H17.52C14.88,323.953,12.739,326.093,12.739,328.737L12.739,328.737z"/>
	<path fill="none" stroke="#FFFFFF" stroke-width="2" stroke-miterlimit="10" d="M36.665,107.005c0,3.427,2.777,6.207,6.207,6.207
		h43.516c3.425,0,6.205-2.78,6.205-6.207l0,0c0-3.427-2.78-6.206-6.205-6.206H42.871C39.441,100.8,36.665,103.578,36.665,107.005
		L36.665,107.005z"/>
	<path fill="#FFFFFF" d="M113.24,176.257c0,5.675,4.598,10.276,10.272,10.276h9.87c5.677,0,10.275-4.6,10.275-10.276l0,0
		c0-5.675-4.598-10.274-10.275-10.274h-9.87C117.838,165.983,113.24,170.582,113.24,176.257L113.24,176.257z"/>
	<path fill="#FFFFFF" d="M392.773,83.33c0,7.412,6.009,13.418,13.419,13.418h57.423c7.41,0,13.417-6.008,13.417-13.418l0,0
		c0-7.408-6.008-13.417-13.417-13.417h-57.423C398.781,69.913,392.773,75.92,392.773,83.33L392.773,83.33z"/>
	<path fill="none" stroke="#FFE500" stroke-width="2" stroke-miterlimit="10" d="M5.591,171.54c0,5.832,4.729,10.561,10.56,10.561
		H61.34c5.832,0,10.56-4.729,10.56-10.561l0,0c0-5.83-4.729-10.559-10.56-10.559H16.15C10.319,160.982,5.591,165.709,5.591,171.54
		L5.591,171.54z"/>
	<path fill="#5F8473" d="M102.526,349.337c0,5.729,4.64,10.365,10.366,10.365h57.801c5.724,0,10.362-4.638,10.362-10.365l0,0
		c0-5.724-4.639-10.364-10.362-10.364h-57.801C107.166,338.973,102.526,343.613,102.526,349.337L102.526,349.337z"/>
	<path fill="#5F8473" d="M138.833,316.403c0,2.849,2.307,5.146,5.152,5.146h11.778c2.848,0,5.149-2.307,5.149-5.146l0,0
		c0-2.854-2.302-5.152-5.149-5.152h-11.778C141.141,311.251,138.833,313.558,138.833,316.403L138.833,316.403z"/>
	<path fill="#5F8473" d="M91.363,328.737c0,1.146,0.934,2.089,2.087,2.089h38.758c1.153,0,2.086-0.938,2.086-2.089l0,0
		c0-1.149-0.935-2.085-2.086-2.085H93.45C92.297,326.652,91.363,327.587,91.363,328.737L91.363,328.737z"/>
</g>
</svg>
