<?xml version="1.0" encoding="utf-8"?>
<!-- Generator: Adobe Illustrator 16.0.0, SVG Export Plug-In . SVG Version: 6.00 Build 0)  -->
<!DOCTYPE svg PUBLIC "-//W3C//DTD SVG 1.1//EN" "http://www.w3.org/Graphics/SVG/1.1/DTD/svg11.dtd">
<svg version="1.1" id="Layer_1" xmlns="http://www.w3.org/2000/svg" xmlns:xlink="http://www.w3.org/1999/xlink" x="0px" y="0px"
	 width="480px" height="480px" viewBox="0 0 480 480" enable-background="new 0 0 480 480" xml:space="preserve">
<g>
	<path fill="#FFE500" d="M478.699,162.334c0,59.086-47.895,106.981-106.979,106.981c-59.078,0-106.975-47.895-106.975-106.981
		c0-59.081,47.896-106.976,106.975-106.976C430.805,55.358,478.699,103.253,478.699,162.334z"/>
	<rect x="9.304" y="458.571" fill="#CC7428" width="470.862" height="21.429"/>
	<g>
		<g>
			<rect x="224.499" y="138.459" fill="#38574B" width="40.366" height="69.721"/>
			<rect x="195.422" y="440.595" fill="#436455" width="69.442" height="17.977"/>
			<rect x="195.422" y="422.623" fill="#527564" width="69.442" height="17.972"/>
			<rect x="195.422" y="404.643" fill="#436455" width="69.442" height="17.98"/>
			<rect x="195.422" y="386.669" fill="#527564" width="69.442" height="17.974"/>
			<rect x="195.422" y="368.692" fill="#436455" width="69.442" height="17.977"/>
			<rect x="195.422" y="350.716" fill="#527564" width="69.442" height="17.977"/>
			<rect x="195.422" y="332.739" fill="#436455" width="69.442" height="17.977"/>
			<rect x="195.422" y="314.762" fill="#527564" width="69.442" height="17.978"/>
			<rect x="195.422" y="296.783" fill="#436455" width="69.442" height="17.979"/>
			<rect x="195.422" y="278.81" fill="#527564" width="69.442" height="17.974"/>
			<rect x="195.422" y="260.832" fill="#436455" width="69.442" height="17.978"/>
			<rect x="195.422" y="242.857" fill="#527564" width="69.442" height="17.975"/>
			<rect x="207.327" y="224.883" fill="#436455" width="57.538" height="17.974"/>
			<rect x="207.327" y="206.901" fill="#527564" width="57.538" height="17.982"/>
			<polygon fill="#2C493E" points="232.785,206.901 202.87,206.901 180.886,266.846 229.182,266.846 			"/>
			<polygon fill="#38574B" points="227.021,255.795 168.63,255.795 140.876,332.739 214.766,329.34 			"/>
			<polygon fill="#436455" points="215.367,323.672 128.621,323.672 101.711,396.224 206.954,396.224 			"/>
			<polygon fill="#527564" points="199.267,458.571 68.067,458.571 90.175,391.119 206.954,391.119 			"/>
			<polygon fill="#5F8473" points="246.365,206.901 226.179,206.901 184.368,458.571 215.367,458.571 			"/>
			<rect x="218.729" y="156.315" fill="#2C493E" width="46.136" height="7.652"/>
			<rect x="250.33" y="175.658" fill="#213C31" width="14.534" height="31.243"/>
			<rect x="264.864" y="138.459" fill="#2C493E" width="40.372" height="69.721"/>
			<rect x="264.864" y="440.595" fill="#38574B" width="69.447" height="17.977"/>
			<rect x="264.864" y="422.623" fill="#436455" width="69.447" height="17.972"/>
			<rect x="264.864" y="404.643" fill="#38574B" width="69.447" height="17.98"/>
			<rect x="264.864" y="386.669" fill="#436455" width="69.447" height="17.974"/>
			<rect x="264.864" y="368.692" fill="#38574B" width="69.447" height="17.977"/>
			<rect x="264.864" y="350.716" fill="#436455" width="69.447" height="17.977"/>
			<rect x="264.864" y="332.739" fill="#38574B" width="69.447" height="17.977"/>
			<rect x="264.864" y="314.762" fill="#436455" width="69.447" height="17.978"/>
			<rect x="264.864" y="296.783" fill="#38574B" width="69.447" height="17.979"/>
			<rect x="264.864" y="278.81" fill="#436455" width="69.447" height="17.974"/>
			<rect x="264.864" y="260.832" fill="#38574B" width="69.447" height="17.978"/>
			<rect x="264.864" y="242.857" fill="#436455" width="69.447" height="17.975"/>
			<rect x="264.864" y="224.883" fill="#38574B" width="57.541" height="17.974"/>
			<rect x="264.864" y="206.901" fill="#436455" width="57.541" height="17.982"/>
			<polygon fill="#223E34" points="296.945,206.901 326.86,206.901 348.849,266.846 300.549,266.846 			"/>
			<polygon fill="#2C493E" points="302.713,255.795 361.101,255.795 388.854,332.739 314.965,329.34 			"/>
			<polygon fill="#38574B" points="314.364,323.672 401.109,323.672 428.022,396.224 322.777,396.224 			"/>
			<polygon fill="#436455" points="330.465,458.571 461.664,458.571 439.557,391.119 322.777,391.119 			"/>
			<polygon fill="#567C6A" points="283.369,206.901 303.554,206.901 345.362,458.571 314.364,458.571 			"/>
			<rect x="264.864" y="156.315" fill="#223E34" width="46.139" height="7.652"/>
			<rect x="264.864" y="175.658" fill="#18332A" width="14.536" height="31.243"/>
		</g>
	</g>
	<path fill="#FFE500" d="M206.336,114.901c0,7.125,5.777,12.904,12.9,12.904h97.862c7.124,0,12.897-5.778,12.897-12.904l0,0
		c0-7.123-5.773-12.898-12.897-12.898h-97.862C212.113,102.003,206.336,107.778,206.336,114.901L206.336,114.901z"/>
	<path fill="#FFE500" d="M251.569,256.084c0,7.127,6.615,12.903,14.775,12.903h112.093c8.159,0,14.775-5.776,14.775-12.903l0,0
		c0-7.123-6.616-12.898-14.775-12.898H266.345C258.185,243.186,251.569,248.961,251.569,256.084L251.569,256.084z"/>
	<path fill="#FFE500" d="M272.467,220.274c0,1.979,1.602,3.581,3.579,3.581h77.095c1.977,0,3.577-1.602,3.577-3.581l0,0
		c0-1.976-1.601-3.58-3.577-3.58h-77.095C274.068,216.694,272.467,218.298,272.467,220.274L272.467,220.274z"/>
	<path fill="#FFE500" d="M240.813,196.839c0,1.979,1.605,3.581,3.581,3.581h77.094c1.976,0,3.581-1.602,3.581-3.581l0,0
		c0-1.979-1.605-3.581-3.581-3.581h-77.094C242.418,193.258,240.813,194.86,240.813,196.839L240.813,196.839z"/>
	<path fill="#FFE500" d="M258.757,87.273c0,1.979,1.604,3.581,3.581,3.581h77.094c1.977,0,3.578-1.602,3.578-3.581l0,0
		c0-1.976-1.602-3.578-3.578-3.578h-77.094C260.36,83.695,258.757,85.298,258.757,87.273L258.757,87.273z"/>
	<path fill="none" stroke="#FFFFFF" stroke-width="3" stroke-miterlimit="10" d="M207.316,97.972
		c0,10.584-8.583,19.165-19.165,19.165H100.25c-10.583,0-19.165-8.58-19.165-19.165l0,0c0-10.586,8.581-19.164,19.165-19.164h87.902
		C198.733,78.809,207.316,87.386,207.316,97.972L207.316,97.972z"/>
	<path fill="#FFFFFF" d="M335.847,169.613c0,8.413-6.821,15.231-15.233,15.231h-69.864c-8.413,0-15.229-6.818-15.229-15.231l0,0
		c0-8.414,6.816-15.234,15.229-15.234h69.864C329.025,154.379,335.847,161.2,335.847,169.613L335.847,169.613z"/>
	<path fill="#FFFFFF" d="M462.644,80.276c0,3.862-3.131,6.998-6.998,6.998H423.55c-3.864,0-6.994-3.136-6.994-6.998l0,0
		c0-3.864,3.13-7,6.994-7h32.096C459.513,73.276,462.644,76.412,462.644,80.276L462.644,80.276z"/>
	<path fill="#FFFFFF" d="M468.614,232.381c0,5.966-4.836,10.804-10.804,10.804h-49.546c-5.971,0-10.803-4.838-10.803-10.804l0,0
		c0-5.966,4.832-10.805,10.803-10.805h49.546C463.778,221.576,468.614,226.415,468.614,232.381L468.614,232.381z"/>
	<path fill="#2C493E" d="M114.776,238.827c0,6.192,5.022,11.22,11.217,11.22h72.437c6.196,0,11.218-5.027,11.218-11.22l0,0
		c0-6.196-5.021-11.218-11.218-11.218h-72.437C119.798,227.609,114.776,232.631,114.776,238.827L114.776,238.827z"/>
	<path fill="#38574B" d="M114.776,296.781c0,6.196,5.022,11.22,11.217,11.22h72.437c6.196,0,11.218-5.023,11.218-11.22l0,0
		c0-6.193-5.021-11.218-11.218-11.218h-72.437C119.798,285.563,114.776,290.588,114.776,296.781L114.776,296.781z"/>
	<path fill="#436455" d="M84.352,333.27c0,1.926,1.563,3.488,3.494,3.488h61.938c1.924,0,3.488-1.563,3.488-3.488l0,0
		c0-1.931-1.563-3.493-3.488-3.493H87.845C85.915,329.776,84.352,331.339,84.352,333.27L84.352,333.27z"/>
	<path fill="#527564" d="M0.167,427.059c0,9.405,7.622,17.025,17.025,17.025h136.066c9.402,0,17.024-7.62,17.024-17.025l0,0
		c0-9.4-7.623-17.02-17.024-17.02H17.191C7.789,410.039,0.167,417.658,0.167,427.059L0.167,427.059z"/>
	<path fill="#38574B" d="M87.406,268.916c0,4.464,3.619,8.084,8.083,8.084h36.613c4.463,0,8.085-3.62,8.085-8.084l0,0
		c0-4.465-3.622-8.084-8.085-8.084H95.488C91.025,260.832,87.406,264.451,87.406,268.916L87.406,268.916z"/>
	<path fill="#527564" d="M25.902,389.39c0,3.774,3.059,6.834,6.834,6.834h12.941c3.772,0,6.831-3.06,6.831-6.834l0,0
		c0-3.772-3.059-6.832-6.831-6.832H32.736C28.961,382.558,25.902,385.617,25.902,389.39L25.902,389.39z"/>
	<path fill="#436455" d="M85.663,361.291c0,3.437,2.783,6.22,6.215,6.22h37.076c3.432,0,6.217-2.783,6.217-6.22l0,0
		c0-3.431-2.786-6.213-6.217-6.213H91.877C88.446,355.078,85.663,357.86,85.663,361.291L85.663,361.291z"/>
	<path fill="#436455" d="M64.287,345.979c0,2.348,1.903,4.254,4.251,4.254h3.274c2.349,0,4.252-1.906,4.252-4.254l0,0
		c0-2.35-1.903-4.253-4.252-4.253h-3.274C66.19,341.726,64.287,343.629,64.287,345.979L64.287,345.979z"/>
	<path fill="#FFFFFF" d="M191.5,210.419c0,4.965,4.024,8.992,8.992,8.992h63.042c4.963,0,8.988-4.027,8.988-8.992l0,0
		c0-4.963-4.025-8.99-8.988-8.99h-63.042C195.524,201.429,191.5,205.456,191.5,210.419L191.5,210.419z"/>
	<path fill="#FFFFFF" d="M145.855,169.275c0,5.045,4.088,9.134,9.134,9.134h8.775c5.046,0,9.135-4.089,9.135-9.134l0,0
		c0-5.046-4.089-9.135-9.135-9.135h-8.775C149.943,160.141,145.855,164.229,145.855,169.275L145.855,169.275z"/>
	<path fill="#FFFFFF" d="M234.701,301.289c0,9.976,8.088,18.062,18.062,18.062h77.3c9.975,0,18.063-8.086,18.063-18.062l0,0
		c0-9.974-8.088-18.062-18.063-18.062h-77.3C242.789,283.228,234.701,291.315,234.701,301.289L234.701,301.289z"/>
	<path fill="none" stroke="#FFFFFF" stroke-width="2" stroke-miterlimit="10" d="M-11.713,301.289
		c0,9.976,8.088,18.062,18.062,18.062h77.3c9.975,0,18.063-8.086,18.063-18.062l0,0c0-9.974-8.088-18.062-18.063-18.062h-77.3
		C-3.625,283.228-11.713,291.315-11.713,301.289L-11.713,301.289z"/>
	<path fill="#5F8473" d="M144.109,364.292c0,5.092,4.126,9.216,9.215,9.216h51.388c5.089,0,9.212-4.124,9.212-9.216l0,0
		c0-5.088-4.124-9.214-9.212-9.214h-51.388C148.235,355.078,144.109,359.204,144.109,364.292L144.109,364.292z"/>
	<path fill="#5F8473" d="M176.389,335.015c0,2.528,2.051,4.579,4.58,4.579h10.47c2.531,0,4.579-2.051,4.579-4.579l0,0
		c0-2.531-2.048-4.582-4.579-4.582h-10.47C178.44,330.433,176.389,332.483,176.389,335.015L176.389,335.015z"/>
	<path fill="#5F8473" d="M134.185,345.979c0,1.026,0.831,1.854,1.855,1.854h34.457c1.024,0,1.855-0.828,1.855-1.854l0,0
		c0-1.022-0.831-1.854-1.855-1.854H136.04C135.016,344.125,134.185,344.956,134.185,345.979L134.185,345.979z"/>
</g>
</svg>
