<?xml version="1.0" encoding="utf-8"?>
<!-- Generator: Adobe Illustrator 16.0.0, SVG Export Plug-In . SVG Version: 6.00 Build 0)  -->
<!DOCTYPE svg PUBLIC "-//W3C//DTD SVG 1.1//EN" "http://www.w3.org/Graphics/SVG/1.1/DTD/svg11.dtd">
<svg version="1.1" id="Layer_1" xmlns="http://www.w3.org/2000/svg" xmlns:xlink="http://www.w3.org/1999/xlink" x="0px" y="0px"
	 width="20px" height="20px" viewBox="90 90 20 20" enable-background="new 90 90 20 20" xml:space="preserve">
<g>
	<circle fill="#6DA544" cx="100" cy="100" r="10"/>
	<polygon fill="#FFDA44" points="100,93.913 108.261,100 100,106.087 91.739,100 	"/>
	<circle fill="#F0F0F0" cx="100" cy="100" r="3.479"/>
	<g>
		<path fill="#0052B4" d="M98.261,99.782c-0.604,0-1.188,0.093-1.738,0.263c0.024,1.9,1.571,3.434,3.478,3.434
			c1.179,0,2.219-0.587,2.849-1.483C101.771,100.647,100.115,99.782,98.261,99.782z"/>
		<path fill="#0052B4" d="M103.414,100.666c0.042-0.216,0.064-0.438,0.064-0.666c0-1.921-1.558-3.479-3.479-3.479
			c-1.434,0-2.664,0.867-3.196,2.105c0.471-0.098,0.958-0.148,1.457-0.148C100.281,98.479,102.108,99.318,103.414,100.666z"/>
	</g>
</g>
</svg>
